<svg width="100" height="100" viewBox="0 0 100 100" fill="none" xmlns="http://www.w3.org/2000/svg">
<g clip-path="url(#clip0_74_423)">
<path d="M50 100C77.6142 100 100 77.6142 100 50C100 22.3858 77.6142 0 50 0C22.3858 0 0 22.3858 0 50C0 77.6142 22.3858 100 50 100Z" fill="#663399"/>
<path d="M51.2001 16C51.7601 16.13 52.3101 16.25 52.8701 16.38C58.3301 17.75 62.1201 22.47 62.2601 28.08C62.2901 29.23 62.2601 30.38 62.2801 31.53C62.2801 31.82 62.3801 32.14 62.5401 32.38C64.2701 34.99 62.8601 38.37 59.7601 38.95C59.3701 39.02 59.2501 39.18 59.1901 39.53C58.8001 41.65 57.7501 43.4 56.1601 44.85C55.9401 45.05 55.7901 45.43 55.7701 45.74C55.7201 46.46 55.5201 47.37 55.8601 47.88C56.2001 48.38 57.1301 48.5 57.8101 48.76C60.8701 49.94 63.9301 51.12 66.9801 52.3C70.8401 53.79 72.9301 56.76 72.9901 60.9C73.0201 62.96 72.9901 65.02 72.9901 67.07C72.9901 67.31 73.0201 67.63 72.8801 67.77C72.6301 68.04 72.2601 68.4 71.9701 68.37C71.6401 68.34 71.2901 67.98 71.0701 67.67C70.9301 67.47 71.0001 67.11 71.0001 66.83C70.9801 64.6 71.0501 62.36 70.9301 60.13C70.7901 57.43 69.3001 55.51 66.8801 54.43C64.6401 53.43 62.3101 52.63 60.0101 51.75C59.9501 51.73 59.8801 51.73 59.7601 51.72C59.1401 52.95 58.5201 54.19 57.8901 55.43C57.5601 56.08 57.2401 56.74 56.9101 57.39C56.0801 59.05 55.2801 59.3 53.6601 58.36C53.1401 58.94 52.7901 59.49 52.9501 60.39C53.9401 65.92 54.8501 71.46 55.8001 76.99C55.9201 77.68 55.6901 78.24 55.2301 78.74C54.2701 79.78 53.3301 80.83 52.3101 81.95H63.0701V81.16C63.0701 75.1 63.0701 69.03 63.0701 62.97C63.0701 62.68 63.0701 62.39 63.1401 62.12C63.2701 61.64 63.6301 61.39 64.1401 61.42C64.6501 61.45 64.9501 61.76 65.0401 62.24C65.0801 62.48 65.0701 62.73 65.0701 62.97C65.0701 69.01 65.0701 75.05 65.0701 81.1V81.96C65.2801 81.98 65.4701 82 65.6601 82C67.1001 82 68.5501 82 69.9901 82C70.8901 82 71.0101 81.88 71.0101 80.96C71.0101 78.28 71.0101 75.6 71.0101 72.93C71.0101 72.75 71.0101 72.58 71.0101 72.4C71.0301 71.56 71.3901 71.11 72.0201 71.12C72.6301 71.13 73.0001 71.57 73.0001 72.37C73.0101 75.34 73.0301 78.3 73.0001 81.27C72.9801 83.01 71.9301 84 70.1801 84.01C61.5001 84.01 52.8201 84.01 44.1401 84.01C44.0301 84.01 43.9201 84.01 43.8101 84.01C43.1801 83.96 42.7901 83.57 42.7901 83.01C42.7901 82.45 43.1901 82.05 43.8301 82.03C44.8701 82.01 45.9201 82.03 46.9601 82.03C47.1701 82.03 47.3901 82.03 47.7501 82.03C46.7301 80.91 45.8301 79.89 44.8901 78.9C44.2901 78.27 44.1001 77.59 44.2501 76.72C45.2001 71.28 46.0901 65.82 47.0601 60.38C47.2201 59.51 46.8401 58.96 46.3501 58.37C46.2101 58.45 46.1001 58.52 45.9901 58.59C44.9201 59.24 43.9001 58.99 43.3201 57.86C42.3901 56.05 41.4901 54.23 40.5801 52.41C40.4701 52.2 40.3601 51.98 40.2201 51.72C39.9201 51.83 39.6301 51.93 39.3501 52.04C37.4901 52.76 35.6301 53.47 33.7701 54.19C30.7101 55.37 29.0501 57.68 29.0301 60.94C29.0001 67.67 29.0201 74.4 29.0301 81.12C29.0301 81.9 29.1801 82.04 29.9701 82.04C31.6101 82.04 33.2501 82.04 34.9601 82.04V81.21C34.9601 75.17 34.9601 69.13 34.9601 63.08C34.9601 62.86 34.9501 62.64 34.9601 62.42C35.0101 61.83 35.4001 61.44 35.9401 61.45C36.5201 61.45 36.8301 61.8 36.9301 62.34C36.9701 62.56 36.9501 62.78 36.9501 63C36.9501 69.06 36.9501 75.13 36.9501 81.19V82.03C37.6301 82.03 38.2401 82.03 38.8601 82.03C39.6401 82.04 40.0801 82.42 40.0701 83.05C40.0601 83.65 39.6301 84.02 38.8801 84.02C35.7901 84.02 32.7101 84.04 29.6201 84.02C28.1901 84.02 27.2101 83.08 27.0501 81.66C27.0201 81.42 27.0201 81.17 27.0201 80.93C27.0201 74.34 27.0301 67.74 27.0201 61.15C27.0101 57.76 28.3401 55.11 31.1801 53.25C31.6801 52.92 32.2201 52.66 32.7801 52.45C36.4101 51.03 40.0501 49.62 43.6901 48.23C44.1301 48.06 44.2501 47.84 44.2901 47.38C44.4201 46.09 44.1001 45.13 43.0401 44.23C41.6401 43.04 40.9301 41.36 40.6001 39.55C40.5301 39.18 40.3901 39.06 40.0201 38.99C36.9601 38.43 35.5501 35.06 37.2801 32.48C37.4401 32.25 37.4901 31.91 37.5101 31.62C37.6001 29.85 37.4901 28.06 37.7501 26.33C38.5501 21.01 42.7401 16.97 48.0401 16.14C48.2101 16.11 48.3701 16.05 48.5301 16C49.4201 16 50.3101 16 51.1901 16H51.2001ZM54.8901 27.9C52.9801 29.11 51.0001 29.97 48.8901 30.55C46.7901 31.13 44.6401 31.36 42.4101 31.26C42.4101 33.33 42.4101 35.31 42.4101 37.3C42.4101 37.87 42.4401 38.45 42.5301 39.02C43.1001 42.73 46.4801 45.33 50.4301 45.12C54.1501 44.92 57.2101 41.91 57.3201 38.23C57.4001 35.8 57.3501 33.36 57.3501 30.93C57.3501 30.75 57.2901 30.52 57.1701 30.39C56.4301 29.57 55.6701 28.76 54.8801 27.91L54.8901 27.9ZM60.2101 30.69C60.6601 25.8 59.2801 21.78 54.8401 19.27C51.2301 17.22 46.7101 17.64 43.4101 20.28C40.0401 22.98 39.1801 26.63 39.5701 30.84C39.9301 30.7 40.4001 30.66 40.4901 30.46C41.0101 29.32 41.9401 29.24 42.9901 29.28C45.6001 29.38 48.1201 28.89 50.5201 27.89C51.6401 27.42 52.7001 26.82 53.7701 26.24C54.5001 25.85 55.2901 25.61 55.9301 26.23C57.0601 27.32 58.0901 28.51 59.1501 29.66C59.2201 29.74 59.3001 29.86 59.2901 29.95C59.2501 30.62 59.6801 30.69 60.2001 30.69H60.2101ZM49.9901 81.51C51.1201 80.27 52.1501 79.08 53.2501 77.96C53.7201 77.49 53.7901 77.04 53.6901 76.43C53.0201 72.6 52.3801 68.76 51.7201 64.93C51.4601 63.39 51.1901 61.85 50.9201 60.27C50.4901 60.27 50.1101 60.31 49.7401 60.27C49.1401 60.19 48.9901 60.48 48.9201 61C48.8001 61.92 48.6201 62.83 48.4701 63.75C47.7301 68.11 46.9901 72.46 46.2601 76.82C46.2201 77.04 46.2101 77.35 46.3401 77.49C47.5201 78.83 48.7401 80.15 49.9901 81.52V81.51ZM49.9901 52.91C51.0201 51.64 51.9201 50.38 52.9701 49.29C53.8101 48.42 53.7901 47.48 53.6901 46.39C51.2101 47.36 48.7601 47.33 46.1801 46.42C46.2501 47.17 46.0901 47.97 46.4201 48.43C47.5001 49.96 48.7401 51.37 49.9901 52.91ZM57.9001 50.93C56.9901 50.58 56.1701 50.25 55.3301 49.96C55.2101 49.92 54.9701 49.96 54.8901 50.06C53.7301 51.45 52.6001 52.86 51.4301 54.3L54.9601 56.79L57.9001 50.93ZM48.5401 54.3C47.3801 52.87 46.2701 51.49 45.1401 50.13C45.0401 50.01 44.7901 49.91 44.6701 49.95C43.8201 50.25 42.9801 50.59 42.0801 50.93L45.0201 56.79L48.5401 54.29V54.3ZM59.3901 32.61V36.92C60.4901 36.77 61.2401 35.96 61.2901 34.87C61.3501 33.79 60.6101 32.88 59.3901 32.61ZM48.0601 57.09C48.5101 58.75 49.7901 58.19 50.8101 58.27C51.5901 58.33 51.5801 57.55 52.0001 57.15C51.3801 56.71 50.8201 56.28 50.2301 55.9C50.1101 55.82 49.8501 55.85 49.7201 55.93C49.1501 56.3 48.6001 56.71 48.0701 57.09H48.0601ZM40.3701 32.72C39.2101 32.94 38.4501 33.82 38.4901 34.87C38.5201 35.95 39.2801 36.8 40.3701 36.94V32.72Z" fill="white"/>
</g>
<defs>
<clipPath id="clip0_74_423">
<rect width="100" height="100" fill="white"/>
</clipPath>
</defs>
</svg>
