<svg width="100" height="100" viewBox="0 0 100 100" fill="none" xmlns="http://www.w3.org/2000/svg">
<g clip-path="url(#clip0_74_401)">
<path d="M50 100C77.6142 100 100 77.6142 100 50C100 22.3858 77.6142 0 50 0C22.3858 0 0 22.3858 0 50C0 77.6142 22.3858 100 50 100Z" fill="#663399"/>
<path d="M87.77 51.72L85.9 49.49L82.06 38.66C81.92 38.26 81.54 37.99 81.12 37.99H70V31C70 30.45 69.55 30 69 30H13C12.45 30 12 30.45 12 31V61C12 61.55 12.45 62 13 62H16V65C16 65.55 16.45 66 17 66H20.09C20.57 68.83 23.03 71 26 71C28.09 71 29.92 69.93 31 68.31C32.08 69.93 33.91 71 36 71C38.97 71 41.43 68.83 41.91 66H69C69 66 69.06 65.99 69.09 65.98C69.56 68.82 72.03 71 75 71C78.31 71 81 68.31 81 65C81 64.66 80.96 64.33 80.91 64H87C87.55 64 88 63.55 88 63V52.36C88 52.13 87.92 51.9 87.77 51.72ZM83.96 50H76V44H81.83L83.96 50ZM14 32H68V60H39.64C39.55 60 39.47 60.03 39.39 60.05C38.43 59.39 37.26 59 36 59C34.74 59 33.64 59.37 32.69 60H29.31C28.36 59.37 27.22 59 26 59C24.78 59 23.57 59.39 22.61 60.06C22.52 60.03 22.43 60 22.33 60H14V32ZM18 62H20.81C20.46 62.61 20.21 63.28 20.09 64H18V62ZM26 69C23.79 69 22 67.21 22 65C22 62.79 23.79 61 26 61C28.21 61 30 62.79 30 65C30 67.21 28.21 69 26 69ZM36 69C33.79 69 32 67.21 32 65C32 62.79 33.79 61 36 61C38.21 61 40 62.79 40 65C40 67.21 38.21 69 36 69ZM41.91 64C41.79 63.28 41.54 62.61 41.19 62H68V63C68 63.55 68.45 64 69 64H69.09V64.02C69.09 64.02 69.03 64 69 64H41.91ZM75 69C72.79 69 71 67.21 71 65C71 62.79 72.79 61 75 61C77.21 61 79 62.79 79 65C79 67.21 77.21 69 75 69ZM80.19 62C79.15 60.21 77.22 59 75 59C72.91 59 71.08 60.07 70 61.69V40H80.41L81.12 42H75C74.45 42 74 42.45 74 43V51C74 51.55 74.45 52 75 52H85C85.12 52 85.23 51.97 85.34 51.93L86 52.72V55H85C84.45 55 84 55.45 84 56C84 56.55 84.45 57 85 57H86V62H80.19Z" fill="white"/>
<path d="M75 66C75.5523 66 76 65.5523 76 65C76 64.4477 75.5523 64 75 64C74.4477 64 74 64.4477 74 65C74 65.5523 74.4477 66 75 66Z" fill="white"/>
<path d="M36 66C36.5523 66 37 65.5523 37 65C37 64.4477 36.5523 64 36 64C35.4477 64 35 64.4477 35 65C35 65.5523 35.4477 66 36 66Z" fill="white"/>
<path d="M26 66C26.5523 66 27 65.5523 27 65C27 64.4477 26.5523 64 26 64C25.4477 64 25 64.4477 25 65C25 65.5523 25.4477 66 26 66Z" fill="white"/>
<path d="M65 56C65.55 56 66 55.55 66 55C66 54.45 65.55 54 65 54H17C16.45 54 16 54.45 16 55C16 55.55 16.45 56 17 56H65Z" fill="white"/>
</g>
<defs>
<clipPath id="clip0_74_401">
<rect width="100" height="100" fill="white"/>
</clipPath>
</defs>
</svg>
