<svg width="100" height="100" viewBox="0 0 100 100" fill="none" xmlns="http://www.w3.org/2000/svg">
<g clip-path="url(#clip0_74_414)">
<path d="M50 100C77.6142 100 100 77.6142 100 50C100 22.3858 77.6142 0 50 0C22.3858 0 0 22.3858 0 50C0 77.6142 22.3858 100 50 100Z" fill="#663399"/>
<path d="M28 29.9801H72C72 28.6101 72.06 27.2601 71.99 25.9201C71.88 23.8601 72.68 23.8801 74.14 24.1101C77.33 24.6201 79.82 27.3601 79.99 30.5901C80 30.8201 80 31.0501 80 31.2801C80 43.8401 80 56.4001 80 68.9601C80 72.3501 77.97 75.0101 74.79 75.7901C74.21 75.9301 73.6 75.9901 73 75.9901C57.67 76 42.34 76 27 75.9901C22.97 75.9901 20.01 73.0401 20 69.0201C20 56.4001 20 43.7701 20 31.1501C20 27.2401 22.98 24.1001 26.73 24.0001C27.62 23.9801 28 24.3401 28 25.2201C28 26.7801 28 28.3401 28 29.9701V29.9801ZM72 32.0501H28V32.8401C28 42.7501 28 52.6701 28 62.5801C28 63.6701 27.75 63.9401 26.67 64.0101C23.93 64.1901 21.92 66.4901 22.01 69.3501C22.09 71.9701 24.2 73.9901 26.92 73.9901C42.31 73.9901 57.71 73.9901 73.1 73.9901C75.82 73.9901 77.92 71.9701 78 69.3401C78.09 66.5001 76.11 64.2201 73.4 64.0101C72.22 63.9201 72.01 63.6901 72.01 62.5101C72.01 52.6201 72.01 42.7201 72.01 32.8301V32.0401L72 32.0501ZM25.97 62.0601V26.1601C23.7 26.5001 22 28.6301 22 31.1501C22 41.9101 22 52.6701 22 63.4401C22 63.6101 22.02 63.7901 22.04 64.0501C23.19 62.9601 24.48 62.3301 25.97 62.0701V62.0601ZM74.02 62.0601C75.54 62.3001 76.81 62.9701 78 64.0701V63.4501C78 52.6701 78 41.8801 78 31.1001C78 30.6901 77.95 30.2701 77.87 29.8601C77.47 27.9601 75.73 26.3001 74.03 26.1601V62.0701L74.02 62.0601ZM67.98 65.9901V46.9401C66.2 46.6601 64.64 45.9301 63.37 44.6601C62.09 43.3901 61.35 41.8301 61.07 40.0301H56.01V41.0301C56.01 43.2601 56.01 45.4901 56.01 47.7201C56.01 48.5201 55.65 48.9801 55.04 48.9901C54.4 49.0101 54.02 48.5301 54.02 47.7101C54.02 45.1701 54.02 42.6301 54.02 40.0401H41.02V40.7001C41.02 42.6601 41.02 44.6201 41.02 46.5701C41.02 47.6801 40.72 47.9901 39.63 47.9901C37.34 47.9901 35.05 47.9901 32.76 47.9901H32.06V55.9901C32.28 55.9901 32.5 55.9901 32.72 55.9901C35.09 55.9901 37.47 55.9901 39.84 55.9901C40.55 55.9901 40.98 56.3501 41.02 56.9301C41.06 57.5501 40.59 57.9901 39.84 57.9901C37.49 57.9901 35.13 57.9901 32.78 57.9901C32.55 57.9901 32.33 57.9901 32.07 57.9901V65.9401H44.03C44.03 64.9301 44.03 63.8901 44.03 62.8601C44.03 62.5701 44.02 62.2801 44.03 61.9901C44.07 61.4001 44.48 61.0001 45.03 61.0001C45.58 61.0001 46.01 61.4001 46.02 62.0001C46.04 63.1701 46.02 64.3301 46.02 65.5001C46.02 65.6401 46.02 65.7801 46.02 65.9601H53.97V54.0401H46.02C46.02 55.2701 46.03 56.4901 46.02 57.7101C46.02 57.9901 46 58.3701 45.83 58.5201C45.57 58.7501 45.11 59.0001 44.83 58.9201C44.51 58.8301 44.09 58.3901 44.08 58.0901C44.01 56.3601 44.02 54.6301 44.06 52.9101C44.07 52.3301 44.52 52.0101 45.2 52.0101C46.53 52.0101 47.87 52.0101 49.2 52.0101C53.64 52.0101 58.07 52.0101 62.51 52.0101C62.68 52.0101 62.84 52.0101 63.01 52.0101C63.64 52.0501 64.06 52.4701 64.04 53.0401C64.02 53.5801 63.62 53.9901 63.02 54.0001C61.85 54.0201 60.69 54.0001 59.52 54.0001C58.4 54.0001 57.27 54.0001 56.05 54.0001V54.6801C56.05 58.6601 56.05 62.6401 56.05 66.6201C56.05 67.6901 55.74 68.0101 54.69 68.0101C46.94 68.0101 39.19 68.0101 31.44 68.0101C30.37 68.0101 30.05 67.7001 30.05 66.6501C30.05 60.2301 30.05 53.8201 30.05 47.4001C30.05 46.3101 30.35 46.0101 31.47 46.0101C33.97 46.0101 36.46 46.0101 39.05 46.0101C39.05 45.7601 39.05 45.5401 39.05 45.3201C39.05 43.3001 39.05 41.2801 39.05 39.2601C39.05 38.3601 39.4 38.0201 40.3 38.0201C49.8 38.0201 59.3 38.0201 68.79 38.0201C69.69 38.0201 70.04 38.3701 70.04 39.2701C70.04 48.4301 70.04 57.6001 70.04 66.7601C70.04 67.6601 69.69 68.0101 68.79 68.0101C65.96 68.0101 63.12 68.0101 60.29 68.0101C59.5 68.0101 59.04 67.6401 59.04 67.0101C59.04 66.3901 59.49 66.0101 60.28 66.0101C62.61 66.0101 64.95 66.0101 67.28 66.0101H68.01L67.98 65.9901ZM67.96 44.8401V40.0301H63.15C63.46 42.4201 65.67 44.6101 67.96 44.8401Z" fill="white"/>
</g>
<defs>
<clipPath id="clip0_74_414">
<rect width="100" height="100" fill="white"/>
</clipPath>
</defs>
</svg>
