<svg width="100" height="100" viewBox="0 0 100 100" fill="none" xmlns="http://www.w3.org/2000/svg">
<g clip-path="url(#clip0_74_411)">
<path d="M50 100C77.6142 100 100 77.6142 100 50C100 22.3858 77.6142 0 50 0C22.3858 0 0 22.3858 0 50C0 77.6142 22.3858 100 50 100Z" fill="#663399"/>
<path d="M68.3298 50.5301V48.4401H42.1498V46.3301H68.2998V44.2101H67.5498C55.7398 44.2101 43.9298 44.2101 32.1198 44.2101C30.8298 44.2101 30.5598 43.9301 30.5598 42.6201C30.5598 41.4801 30.5598 40.3501 30.5598 39.2101C30.5598 38.2701 30.9298 37.9101 31.8798 37.9101C44.2798 37.9101 56.6798 37.9101 69.0798 37.9101C70.1198 37.9101 70.4498 38.2601 70.4498 39.3701C70.4498 52.6001 70.4498 65.8401 70.4498 79.0701V79.8801H76.6998V30.6101C75.2198 30.2501 73.6998 29.8701 72.1798 29.5101C65.1798 27.8201 58.1698 26.1201 51.1698 24.4501C50.7998 24.3601 50.3798 24.3301 50.0198 24.4201C41.6298 26.4301 33.2498 28.4501 24.8698 30.4801C24.6798 30.5301 24.4998 30.5801 24.2598 30.6501V44.1801H22.1798V31.1401C21.5498 31.2901 20.9998 31.4201 20.4598 31.5401C19.5998 31.7301 19.0298 31.3101 19.0198 30.4401C18.9998 29.1501 19.0198 27.8601 19.0198 26.5701C19.0198 25.7801 19.2598 25.4901 20.0498 25.2901C26.1798 23.8101 32.3198 22.3301 38.4498 20.8401C42.2898 19.9101 46.1298 18.9801 49.9798 18.0701C50.2898 18.0001 50.6398 17.9701 50.9398 18.0401C60.9198 20.4301 70.8898 22.8401 80.8698 25.2501C81.8098 25.4801 82.0098 25.7501 82.0098 26.7101C82.0098 27.9101 82.0098 29.1201 82.0098 30.3201C82.0098 31.3301 81.4698 31.7401 80.4798 31.5101C79.9698 31.3901 79.4598 31.2801 78.8998 31.1501V79.8801H81.9598V81.9601H61.0698V79.9201H68.3298V56.8301H42.1498V54.7201H68.2998V52.6101H42.1398V50.5201H68.3398L68.3298 50.5301ZM21.1298 27.1801V29.1901C21.3898 29.1401 21.6198 29.1001 21.8498 29.0401C31.2098 26.7801 40.5598 24.5201 49.9198 22.2801C50.2598 22.2001 50.6598 22.1801 51.0098 22.2701C58.7798 24.1301 66.5498 26.0001 74.3098 27.8701C76.1498 28.3101 77.9898 28.7601 79.8698 29.2101V27.2001C79.6998 27.1501 79.5598 27.0901 79.4098 27.0601C69.9498 24.7701 60.4798 22.4901 51.0198 20.2101C50.6998 20.1301 50.3198 20.1401 49.9998 20.2101C45.1198 21.3701 40.2398 22.5601 35.3598 23.7401C30.6298 24.8801 25.8998 26.0301 21.1398 27.1801H21.1298ZM68.3198 40.0501H32.7098V42.0701H68.3198V40.0501ZM40.0098 63.1001H40.8798C46.3898 63.1001 51.8998 63.1001 57.4098 63.1001C58.6098 63.1001 58.9098 63.4101 58.9098 64.6201C58.9098 69.9101 58.9098 75.2001 58.9098 80.5001C58.9098 81.7001 58.5998 82.0001 57.3898 82.0001C45.0998 82.0001 32.8098 82.0001 20.5198 82.0001C19.3198 82.0001 19.0098 81.6901 19.0098 80.4901C19.0098 69.6001 19.0098 58.7101 19.0098 47.8201C19.0098 46.6101 19.3098 46.3101 20.5098 46.3101C26.5198 46.3101 32.5398 46.3101 38.5498 46.3101C39.6698 46.3101 39.9998 46.6401 39.9998 47.7501C39.9998 52.6001 39.9998 57.4601 39.9998 62.3101V63.1101L40.0098 63.1001ZM33.7098 48.4301C33.7098 50.1201 33.7098 51.7301 33.7098 53.3501C33.7098 54.3401 33.3498 54.7001 32.3798 54.7101C30.5398 54.7101 28.7098 54.7101 26.8698 54.7101C25.6098 54.7101 25.3198 54.4201 25.3198 53.1801C25.3198 51.6101 25.3198 50.0401 25.3198 48.4501H21.1498V63.0801H37.8598V48.4401H33.6998L33.7098 48.4301ZM33.7098 65.2401C33.7098 66.9401 33.7098 68.6001 33.7098 70.2601C33.7098 71.0901 33.3298 71.5001 32.5298 71.5001C30.5198 71.5101 28.5098 71.5101 26.4898 71.5001C25.7098 71.5001 25.3198 71.1001 25.3098 70.3201C25.2998 68.8301 25.3098 67.3501 25.3098 65.8601C25.3098 65.6501 25.2898 65.4401 25.2798 65.2401H21.1498V79.8601H37.8698V65.2401H33.6998H33.7098ZM56.7598 79.8701V65.2401H52.6098C52.6098 65.4801 52.6098 65.7001 52.6098 65.9101C52.6098 67.3801 52.6098 68.8401 52.6098 70.3101C52.6098 71.0901 52.2098 71.5001 51.4498 71.5101C49.4198 71.5201 47.3798 71.5201 45.3498 71.5101C44.6198 71.5101 44.2298 71.1001 44.2198 70.3501C44.1998 69.4501 44.2198 68.5601 44.2198 67.6601C44.2198 66.8601 44.2198 66.0601 44.2198 65.2601H40.0498V79.8801H56.7698L56.7598 79.8701ZM31.5598 52.5701V48.4501H27.4398V52.5701H31.5598ZM27.4498 65.2301V69.3501H31.5698V65.2301H27.4498ZM50.4598 69.3901V65.2501H46.3498V69.3901H50.4598ZM50.4798 34.7501C49.7598 34.7501 49.0398 34.7701 48.3198 34.7501C46.6098 34.7001 45.2598 33.3101 45.2598 31.6201C45.2598 29.9301 46.5998 28.5101 48.2998 28.4701C49.7598 28.4401 51.2298 28.4401 52.6898 28.4701C54.3998 28.5001 55.7498 29.9101 55.7498 31.6001C55.7498 33.2901 54.4098 34.7001 52.7098 34.7501C51.9698 34.7701 51.2198 34.7501 50.4798 34.7501ZM50.5298 30.5501C49.8498 30.5501 49.1698 30.5401 48.4998 30.5501C47.8198 30.5701 47.3798 30.9801 47.3698 31.5701C47.3598 32.1901 47.8098 32.6301 48.5198 32.6401C49.8498 32.6501 51.1898 32.6501 52.5198 32.6401C53.1998 32.6401 53.6398 32.2101 53.6498 31.6201C53.6598 31.0001 53.2098 30.5701 52.4998 30.5501C51.8398 30.5401 51.1898 30.5501 50.5298 30.5501ZM33.7398 60.9601H35.7598V58.9301H33.7398V60.9601ZM33.7398 75.7301V77.7501H35.7698V75.7301H33.7398ZM54.6498 77.7501V75.7501H52.6098V77.7501H54.6498Z" fill="white"/>
</g>
<defs>
<clipPath id="clip0_74_411">
<rect width="100" height="100" fill="white"/>
</clipPath>
</defs>
</svg>
