<svg width="100" height="100" viewBox="0 0 100 100" fill="none" xmlns="http://www.w3.org/2000/svg">
<g clip-path="url(#clip0_74_417)">
<path d="M50 100C77.6142 100 100 77.6142 100 50C100 22.3858 77.6142 0 50 0C22.3858 0 0 22.3858 0 50C0 77.6142 22.3858 100 50 100Z" fill="#663399"/>
<path d="M39.89 55.58C39.62 55.05 39.13 55.01 38.61 55.01C37.26 55.02 35.91 55.01 34.5 55.01V54.22C34.5 45.6 34.5 36.98 34.5 28.36C34.5 27.34 34.18 27.02 33.15 27.02C30.42 27.02 27.69 27.02 24.96 27.02C23.77 27.02 23.49 27.3 23.49 28.49C23.49 37.07 23.49 45.65 23.49 54.22V55C22.1 55 20.77 55.03 19.44 54.99C18.83 54.97 18.34 55.12 17.99 55.63V56.38C17.99 56.38 18.09 56.45 18.12 56.5C21.4 61.09 24.67 65.68 27.95 70.27C28.65 71.25 29.31 71.26 30 70.3C33.2 65.83 36.39 61.36 39.59 56.89C39.88 56.49 40.14 56.09 39.87 55.57L39.89 55.58ZM29 68.29C26.31 64.53 23.67 60.83 20.94 57.02C22.1 57.02 23.13 57.02 24.16 57.02C25.17 57.02 25.5 56.69 25.5 55.67C25.5 47.07 25.5 38.48 25.5 29.88V29.08H32.5V29.78C32.5 38.36 32.5 46.93 32.5 55.51C32.5 56.75 32.76 57.02 33.99 57.02C34.97 57.02 35.94 57.02 37.06 57.02C34.34 60.82 31.71 64.51 29 68.29ZM61.75 66.01C60.06 66.01 58.37 66.01 56.69 66.01H56.04C56.02 65.86 56.01 65.8 56.01 65.74C56.01 58.81 56.01 51.87 56.03 44.94C56.03 44.72 56.26 44.43 56.46 44.31C61.22 41.33 63.46 37.05 62.88 31.46C62.12 24.15 55.13 18.96 47.88 20.19C42.36 21.13 38.19 25.3 37.17 30.9C36.22 36.09 38.8 41.54 43.51 44.25C43.89 44.47 44.01 44.7 44.01 45.12C44 51.87 44.01 58.61 44 65.36C44 65.56 43.98 65.76 43.97 66.01H43.25C41.54 66.01 39.83 65.98 38.13 66.04C37.78 66.05 37.31 66.32 37.15 66.62C37.01 66.88 37.2 67.34 37.28 67.7C37.31 67.83 37.44 67.94 37.53 68.05C40.99 72.66 44.45 77.28 47.92 81.88C48.47 82.61 49.06 83.3 49.63 84H50.38C50.56 83.81 50.77 83.64 50.93 83.43C54.85 78.22 58.75 73.01 62.67 67.8C62.95 67.43 63.13 67.05 62.9 66.59C62.66 66.11 62.25 66.01 61.76 66.01H61.75ZM39 33.04C39 26.95 43.94 22.01 49.99 22.03C56.12 22.05 61 26.96 61 33.09C61 39.13 56.01 44.04 49.92 44.01C43.93 43.99 39 39.03 39.01 33.04H39ZM50 81.33C46.65 76.86 43.37 72.49 40 68H41.34C42.44 68 43.55 68 44.65 68C45.67 68 45.99 67.68 45.99 66.66C45.99 59.83 45.99 53 45.99 46.17V45.38C48.67 46.22 51.29 46.21 53.99 45.38V46.15C53.99 52.94 53.99 59.73 53.99 66.51C53.99 67.71 54.27 67.99 55.45 67.99C56.92 67.99 58.39 67.99 59.99 67.99C56.62 72.48 53.33 76.86 49.99 81.32L50 81.33ZM81.9 55.59C81.66 55.11 81.25 55 80.75 55.01C80.15 55.02 79.54 55.01 78.94 55.01H76.5V54.18C76.5 45.6 76.5 37.03 76.5 28.45C76.5 27.31 76.21 27.02 75.05 27.02C72.36 27.02 69.68 27.02 66.99 27.02C65.76 27.02 65.49 27.29 65.49 28.52C65.49 37.07 65.49 45.63 65.49 54.18V55C64.04 55 62.66 55 61.29 55C60.8 55 60.37 55.07 60.11 55.54C59.85 56.01 60.04 56.41 60.32 56.81C63.55 61.33 66.78 65.85 70.01 70.37C70.63 71.24 71.33 71.23 71.95 70.37C72.79 69.21 73.62 68.03 74.46 66.87C76.85 63.52 79.25 60.16 81.65 56.81C81.92 56.44 82.11 56.06 81.88 55.6L81.9 55.59ZM71.01 68.28C68.32 64.51 65.67 60.82 62.95 57.01C64.05 57.01 65.01 57.01 65.96 57.01C67.24 57.01 67.5 56.75 67.5 55.49C67.5 46.94 67.5 38.38 67.5 29.83V29.06H74.5V29.76C74.5 38.36 74.5 46.95 74.5 55.55C74.5 56.74 74.78 57.01 75.97 57.01C76.95 57.01 77.93 57.01 79.05 57.01C76.34 60.8 73.7 64.5 71 68.28H71.01ZM52.01 38C52.56 38 53.01 37.55 53.01 37C53.01 36.45 52.56 36 52.01 36H49.01V35H52.01C54.22 35 56.01 33.21 56.01 31C56.01 28.79 54.22 27 52.01 27H48.01C47.46 27 47.01 27.45 47.01 28V33H46.01C45.46 33 45.01 33.45 45.01 34C45.01 34.55 45.46 35 46.01 35H47.01V36H46.01C45.46 36 45.01 36.45 45.01 37C45.01 37.55 45.46 38 46.01 38H47.01V39C47.01 39.55 47.46 40 48.01 40C48.56 40 49.01 39.55 49.01 39V38H52.01ZM49.01 29H52.01C53.11 29 54.01 29.9 54.01 31C54.01 32.1 53.11 33 52.01 33H49.01V29Z" fill="white"/>
</g>
<defs>
<clipPath id="clip0_74_417">
<rect width="100" height="100" fill="white"/>
</clipPath>
</defs>
</svg>
