<svg width="100" height="100" viewBox="0 0 100 100" fill="none" xmlns="http://www.w3.org/2000/svg">
<g clip-path="url(#clip0_74_398)">
<path d="M50 100C77.6142 100 100 77.6142 100 50C100 22.3858 77.6142 0 50 0C22.3858 0 0 22.3858 0 50C0 77.6142 22.3858 100 50 100Z" fill="#663399"/>
<path d="M38.95 63.0001C38.4 63.0001 37.85 63.0001 37.3 63.0001C35.97 62.9901 35.01 61.8501 35 60.2901V47.8001C35 45.8801 36.19 45.0201 37.38 45.0201C38.46 45.0201 39.54 45.0201 40.61 45.0201C42.03 45.0201 42.98 46.1301 42.98 47.7801C42.98 51.9501 42.99 56.1301 42.99 60.3101C42.99 61.8701 42.02 63.0101 40.68 63.0201C40.1 63.0201 39.52 63.0201 38.94 63.0201L38.95 63.0001ZM38.99 47.0001C38.45 47.0001 37.92 47.0001 37.38 47.0001C37.29 47.0001 37 47.0001 37 47.7801V60.2701C37 60.5601 37.08 60.9801 37.31 60.9901C38.43 60.9901 39.55 60.9901 40.67 60.9901C40.88 60.9901 40.99 60.6201 40.99 60.2801C40.99 56.1101 40.99 51.9301 40.98 47.7601C40.98 47.2601 40.85 47.0001 40.6 47.0001C40.06 47.0001 39.53 47.0001 38.99 47.0001ZM59.79 63.0001H59.75C56.96 62.9701 54.18 62.9401 51.39 62.9201L47.74 62.8801C47.38 62.8801 47.02 62.8801 46.66 62.8701C45.14 62.8401 44 61.6901 43.99 60.1901C43.99 57.1301 43.99 54.0601 43.99 51.0001V46.9201C43.99 46.2401 44.25 45.6001 44.74 45.0501C45.33 44.3901 45.98 43.6801 46.69 43.0301C47.39 42.3801 48.1 41.7501 48.82 41.1201C49.21 40.7801 49.59 40.4401 49.98 40.0901C50.08 40.0001 50.18 39.8901 50.27 39.7901C50.35 39.7101 50.42 39.6201 50.5 39.5501C50.96 39.0901 51.17 38.5801 51.17 37.9001C51.17 37.1801 51.23 36.4701 51.29 35.7801C51.31 35.4901 51.34 35.2101 51.36 34.9201C51.36 34.8601 51.37 34.7801 51.39 34.7101C51.64 33.3701 52.35 32.8601 53.69 33.0401C55.85 33.3401 57.18 34.7201 57.45 36.9501C57.7 39.0301 57.17 40.9701 56.67 42.4201C56.47 42.9901 56.26 43.5501 56.03 44.1301H57.18C58.95 44.1301 60.72 44.1301 62.49 44.1301H62.5C64.27 44.1301 65.15 45.0901 65.59 45.8901C66.05 46.7501 66.13 47.7501 65.79 48.6401C65.58 49.2001 65.21 49.7001 64.74 50.0701C65.08 50.7801 65.18 51.5701 64.99 52.3401C64.81 53.0701 64.4 53.7001 63.83 54.1501C64.18 54.8301 64.26 55.5901 64.07 56.3801C63.93 56.9601 63.61 57.6801 62.88 58.2301C63.32 59.1001 63.27 59.9401 63.1 60.5601C62.7 62.0501 61.4 63.0101 59.79 63.0101V63.0001ZM53.36 35.0201V35.0701C53.33 35.3501 53.31 35.6401 53.29 35.9401C53.23 36.6201 53.18 37.2601 53.18 37.9101C53.18 39.1001 52.75 40.1301 51.93 40.9601L51.74 41.1601C51.6 41.3101 51.46 41.4601 51.31 41.5901C50.92 41.9401 50.53 42.2801 50.14 42.6301C49.44 43.2501 48.74 43.8601 48.05 44.5001C47.4 45.1001 46.79 45.7701 46.23 46.3901C45.99 46.6501 45.99 46.8601 45.99 46.9201V51.0001C45.99 54.0601 45.99 57.1301 45.99 60.1901C45.99 60.5901 46.27 60.8601 46.7 60.8701C47.05 60.8701 47.4 60.8701 47.75 60.8801L51.41 60.9201C54.19 60.9501 56.98 60.9801 59.76 61.0001C60.51 61.0201 61 60.6401 61.16 60.0301C61.26 59.6501 61.29 59.1701 60.68 58.5901C60.43 58.3501 60.32 57.9901 60.4 57.6401C60.48 57.3001 60.73 57.0201 61.07 56.9101C61.85 56.6601 62.04 56.2401 62.12 55.9001C62.2 55.5501 62.22 55.0801 61.64 54.5301C61.38 54.2801 61.27 53.9101 61.35 53.5701C61.43 53.2201 61.7 52.9401 62.05 52.8401C62.55 52.7001 62.92 52.3201 63.04 51.8401C63.16 51.3501 62.99 50.8401 62.57 50.4401C62.32 50.2001 62.21 49.8601 62.28 49.5301C62.34 49.2001 62.58 48.9201 62.89 48.7901L63.1 48.7101C63.49 48.5701 63.77 48.2901 63.91 47.9301C64.04 47.5801 64.01 47.1801 63.82 46.8301C63.63 46.4801 63.32 46.1201 62.49 46.1201C60.72 46.1201 58.95 46.1201 57.17 46.1201H54.55C54.22 46.1201 53.91 45.9601 53.72 45.6801C53.53 45.4101 53.49 45.0601 53.61 44.7501C53.74 44.4101 53.87 44.0801 54 43.7601C54.27 43.0901 54.53 42.4301 54.76 41.7601C55.21 40.4301 55.64 38.8501 55.44 37.1801C55.28 35.8601 54.65 35.1901 53.39 35.0101C53.37 35.0101 53.35 35.0101 53.34 35.0101L53.36 35.0201ZM54.75 81.0001C54.62 81.0001 54.48 80.9701 54.35 80.9201L50 79.0401L45.65 80.9201C45.29 81.0701 44.88 81.0101 44.59 80.7501L41.03 77.6101L36.31 78.0601C35.93 78.1101 35.55 77.9101 35.36 77.5701L32.94 73.4901L28.31 72.4501C27.93 72.3701 27.64 72.0701 27.55 71.6901L26.51 67.0601L22.43 64.6401C22.1 64.4401 21.91 64.0701 21.94 63.6901L22.39 58.9701L19.25 55.4101C18.99 55.1201 18.93 54.7101 19.08 54.3501L20.96 50.0001L19.08 45.6501C18.93 45.2901 18.99 44.8801 19.25 44.5901L22.39 41.0301L21.94 36.3101C21.9 35.9201 22.09 35.5501 22.43 35.3601L26.51 32.9401L27.55 28.3101C27.63 27.9301 27.93 27.6401 28.31 27.5501L32.94 26.5101L35.36 22.4301C35.56 22.1001 35.93 21.9001 36.31 21.9401L41.03 22.3901L44.59 19.2501C44.88 18.9901 45.29 18.9301 45.65 19.0801L50 20.9601L54.35 19.0801C54.71 18.9301 55.12 18.9901 55.41 19.2501L58.97 22.3901L63.69 21.9401C64.08 21.8901 64.45 22.0901 64.64 22.4301L67.06 26.5101L71.69 27.5501C72.07 27.6301 72.36 27.9301 72.45 28.3101L73.49 32.9401L77.57 35.3601C77.9 35.5601 78.09 35.9301 78.06 36.3101L77.61 41.0301L80.75 44.5901C81.01 44.8801 81.07 45.2901 80.92 45.6501L79.04 50.0001L80.92 54.3501C81.07 54.7101 81.01 55.1201 80.75 55.4101L77.61 58.9701L78.06 63.6901C78.1 64.0801 77.91 64.4501 77.57 64.6401L73.49 67.0601L72.45 71.6901C72.37 72.0701 72.07 72.3601 71.69 72.4501L67.06 73.4901L64.64 77.5701C64.44 77.9001 64.07 78.1101 63.69 78.0601L58.97 77.6101L55.41 80.7501C55.22 80.9101 54.99 81.0001 54.75 81.0001ZM50 76.9401C50.13 76.9401 50.27 76.9701 50.4 77.0201L54.57 78.8201L57.98 75.8201C58.19 75.6401 58.46 75.5501 58.73 75.5701L63.25 76.0001L65.56 72.0901C65.7 71.8501 65.93 71.6801 66.2 71.6201L70.63 70.6301L71.62 66.2001C71.68 65.9301 71.85 65.7001 72.09 65.5601L76 63.2501L75.57 58.7301C75.54 58.4601 75.63 58.1801 75.82 57.9801L78.82 54.5701L77.02 50.4001C76.91 50.1501 76.91 49.8601 77.02 49.6101L78.82 45.4401L75.82 42.0301C75.64 41.8201 75.55 41.5501 75.57 41.2801L76 36.7601L72.09 34.4501C71.85 34.3101 71.68 34.0801 71.62 33.8101L70.63 29.3801L66.2 28.3901C65.93 28.3301 65.7 28.1601 65.56 27.9201L63.25 24.0101L58.73 24.4401C58.46 24.4601 58.18 24.3801 57.98 24.1901L54.57 21.1901L50.4 22.9901C50.15 23.1001 49.86 23.1001 49.61 22.9901L45.44 21.1901L42.03 24.1901C41.82 24.3701 41.55 24.4601 41.28 24.4401L36.76 24.0101L34.45 27.9201C34.31 28.1601 34.08 28.3301 33.81 28.3901L29.38 29.3801L28.39 33.8101C28.33 34.0801 28.16 34.3101 27.92 34.4501L24.01 36.7601L24.44 41.2801C24.47 41.5501 24.38 41.8301 24.19 42.0301L21.19 45.4401L22.99 49.6101C23.1 49.8601 23.1 50.1501 22.99 50.4001L21.19 54.5701L24.19 57.9801C24.37 58.1901 24.46 58.4601 24.44 58.7301L24.01 63.2501L27.92 65.5601C28.16 65.7001 28.33 65.9301 28.39 66.2001L29.38 70.6301L33.81 71.6201C34.08 71.6801 34.31 71.8501 34.45 72.0901L36.76 76.0001L41.28 75.5701C41.55 75.5401 41.83 75.6301 42.03 75.8201L45.44 78.8201L49.61 77.0201C49.74 76.9701 49.87 76.9401 50.01 76.9401H50ZM20 61.0001H14.42L18.23 50.3401C18.31 50.1201 18.31 49.8801 18.23 49.6701L14.42 39.0101H20V37.0101H13C12.67 37.0101 12.37 37.1701 12.18 37.4301C11.99 37.6901 11.95 38.0401 12.06 38.3401L16.23 50.0001L12.06 61.6601C11.95 61.9701 12 62.3101 12.18 62.5701C12.36 62.8301 12.67 62.9901 13 62.9901H20V60.9901V61.0001ZM87.82 62.5801C88.01 62.3101 88.05 61.9701 87.94 61.6701L83.77 50.0101L87.94 38.3501C88.05 38.0401 88 37.7001 87.82 37.4401C87.64 37.1801 87.33 37.0201 87 37.0201H80V39.0201H85.58L81.77 49.6801C81.69 49.9001 81.69 50.1401 81.77 50.3501L85.58 61.0101H80V63.0101H87C87.33 63.0101 87.63 62.8501 87.82 62.5901V62.5801Z" fill="white"/>
</g>
<defs>
<clipPath id="clip0_74_398">
<rect width="100" height="100" fill="white"/>
</clipPath>
</defs>
</svg>
