<svg width="100" height="100" viewBox="0 0 100 100" fill="none" xmlns="http://www.w3.org/2000/svg">
<g clip-path="url(#clip0_74_381)">
<path d="M50 100C77.6142 100 100 77.6142 100 50C100 22.3858 77.6142 0 50 0C22.3858 0 0 22.3858 0 50C0 77.6142 22.3858 100 50 100Z" fill="#663399"/>
<path d="M50.17 85.5C49.65 85.11 49.55 84.58 49.55 83.95C49.57 80.9 49.55 77.84 49.55 74.79C49.55 74.55 49.55 74.31 49.55 73.94C48.26 75.02 47.42 76.21 47.31 77.75C47.21 79.19 47.24 80.64 47.23 82.09C47.23 82.64 47.06 83.07 46.51 83.27C45.95 83.46 45.26 83.11 45.25 82.49C45.21 80.24 44.89 77.96 45.71 75.77C45.91 75.23 46.21 74.73 46.55 74.02C45.6 74.65 44.76 75.13 44.01 75.72C43.17 76.37 42.88 77.33 42.87 78.37C42.87 79.25 42.87 80.14 42.87 81.02C42.87 81.77 42.48 82.22 41.89 82.24C41.29 82.25 40.85 81.8 40.85 81.07C40.85 79.92 40.82 78.76 40.91 77.61C41.05 75.9 41.92 74.59 43.35 73.66C44.85 72.69 46.38 71.77 47.89 70.81C48.82 70.22 49.41 69.4 49.51 68.28C49.62 67.07 48.7 66.01 47.49 65.93C47.02 65.9 46.54 65.9 46.07 65.93C45.05 65.98 44.24 66.7 44.04 67.71C43.75 69.12 43.71 69.15 42.28 69.18C42.15 69.18 42.01 69.2 41.79 69.22C41.79 69.52 41.79 69.8 41.79 70.09C41.77 72.21 40.46 73.52 38.36 73.53C36.93 73.53 35.51 73.53 34.08 73.53C34.04 73.53 33.99 73.55 33.84 73.58C34.21 74.05 34.55 74.48 34.88 74.91C35.37 75.54 35.37 76.13 34.9 76.53C34.39 76.96 33.82 76.84 33.28 76.17C29.76 71.77 26.24 67.38 22.73 62.97C22.45 62.62 22.21 62.46 21.73 62.55C20.28 62.83 18.88 62.06 18.29 60.73C17.69 59.4 18.07 57.85 19.21 56.93C20.34 56.03 21.97 56 23.12 56.87C24.29 57.75 24.72 59.27 24.13 60.63C23.95 61.05 24 61.31 24.28 61.65C26.81 64.78 29.31 67.94 31.85 71.07C32.03 71.29 32.4 71.45 32.69 71.46C34.45 71.5 36.22 71.48 37.98 71.48C39.49 71.48 39.8 71.16 39.76 69.63C39.76 69.5 39.74 69.37 39.72 69.16C39.04 69.16 38.39 69.16 37.74 69.16C36.85 69.14 36.45 68.72 36.5 67.84C36.66 65.31 37.71 63.21 39.89 61.9C40.9 61.29 40.95 60.61 40.79 59.75C39.61 60.1 38.44 60.47 37.25 60.81C37.01 60.88 36.76 60.9 36.51 60.92C35.6 61 35.37 60.85 35.02 59.93C34.8 59.97 34.56 60.02 34.32 60.06C32.04 60.44 29.81 60.18 27.64 59.4C26.7 59.06 26.52 58.6 26.92 57.63C26.46 57.34 25.97 57.06 25.52 56.74C24.37 55.95 23.42 54.95 22.69 53.76C22.13 52.86 22.23 52.44 23.14 51.83C21.28 49.93 20.07 47.66 19.3 45.13C19.24 44.94 19.12 44.73 19.15 44.55C19.2 44.17 19.22 43.65 19.46 43.47C19.73 43.26 20.24 43.33 20.64 43.34C20.82 43.34 21 43.49 21.12 43.54C20.83 42.2 20.47 40.88 20.26 39.53C20.12 38.62 20.12 37.68 20.18 36.76C20.2 36.39 20.45 35.94 20.74 35.7C21.13 35.37 21.59 35.59 21.98 35.89C22.14 36.01 22.31 36.12 22.54 36.27C22.4 35.37 22.17 34.54 22.16 33.71C22.15 32.13 22.22 30.55 22.36 28.98C22.39 28.63 22.8 28.12 23.13 28.03C23.46 27.94 24.02 28.19 24.28 28.47C29.14 33.99 33.96 39.54 38.79 45.08C39.25 45.6 39.32 46.1 38.86 46.65C38.49 47.1 38.37 47.65 38.78 48.07C39.05 48.35 39.55 48.54 39.94 48.53C40.53 48.51 40.77 48.02 40.86 47.45C41.08 45.97 41.79 45.37 43.27 45.35C43.52 45.35 43.76 45.35 44.04 45.35C44.37 42.42 43.82 39.82 41.61 37.76C41.48 37.64 41.25 37.58 41.06 37.58C39.95 37.56 38.84 37.56 37.73 37.58C36.87 37.59 36.5 37.92 36.35 38.76C36.22 39.45 35.87 39.77 35.29 39.75C34.72 39.72 34.34 39.32 34.33 38.65C34.31 37.56 34.28 36.48 34.33 35.39C34.42 33.55 35.78 32.32 37.69 32.27C37.94 32.27 38.19 32.15 38.43 32.09C38.33 31.88 38.26 31.65 38.14 31.45C36.97 29.52 37.7 27.07 39.77 26.12C40.19 25.93 40.35 25.7 40.31 25.26C40.28 24.97 40.3 24.67 40.36 24.38C40.47 23.84 40.85 23.56 41.39 23.59C41.92 23.62 42.37 23.95 42.3 24.49C42.16 25.53 42.66 25.99 43.49 26.5C44.98 27.41 45.33 28.96 44.74 31.19C45.56 31.19 46.36 31.18 47.16 31.19C47.84 31.2 48.25 31.55 48.31 32.11C48.37 32.68 48.01 33.14 47.45 33.21C47.21 33.24 46.96 33.21 46.66 33.29C48.22 34.84 49.67 36.45 50.53 38.51C51.16 37.54 51.68 36.59 52.33 35.74C52.99 34.89 53.77 34.14 54.56 33.27C54.3 33.25 54.11 33.23 53.92 33.22C53.26 33.18 52.87 32.82 52.86 32.23C52.85 31.65 53.24 31.22 53.88 31.19C54.6 31.16 55.33 31.18 56.05 31.17C56.16 31.17 56.27 31.15 56.38 31.14C56.29 30.64 56.16 30.16 56.13 29.67C56.04 28.12 56.84 26.75 58.25 26.12C58.74 25.9 58.89 25.64 58.83 25.15C58.8 24.93 58.82 24.7 58.84 24.47C58.9 23.92 59.25 23.6 59.78 23.57C60.32 23.54 60.84 23.85 60.78 24.36C60.64 25.59 61.4 26.05 62.23 26.66C63.72 27.76 63.97 29.88 62.97 31.49C62.86 31.67 62.81 31.88 62.73 32.08C62.93 32.14 63.14 32.25 63.34 32.26C65.58 32.32 66.84 33.6 66.84 35.86C66.84 36.74 66.84 37.63 66.84 38.51C66.84 39.25 66.51 39.67 65.93 39.73C65.31 39.79 64.95 39.46 64.8 38.67C64.66 37.95 64.28 37.59 63.55 37.57C62.37 37.54 61.2 37.55 60.02 37.57C59.81 37.57 59.56 37.73 59.4 37.89C57.94 39.34 57.12 41.07 57.07 43.14C57.05 43.84 57.07 44.53 57.07 45.33C57.47 45.33 57.83 45.31 58.18 45.33C59.36 45.39 60.1 46.06 60.3 47.23C60.32 47.36 60.29 47.54 60.36 47.63C60.61 47.95 60.86 48.41 61.19 48.48C61.55 48.56 62.14 48.37 62.35 48.09C62.57 47.81 62.6 47.2 62.44 46.86C61.88 45.67 61.84 45.69 62.7 44.7C67.4 39.31 72.1 33.92 76.79 28.53C77.13 28.14 77.48 27.79 78.06 27.96C78.63 28.12 78.78 28.58 78.87 29.1C79.29 31.47 79.16 33.82 78.58 36.26C78.82 36.11 78.98 36.02 79.13 35.91C79.53 35.61 80 35.32 80.42 35.68C80.72 35.93 80.96 36.41 80.99 36.8C81.15 38.92 80.84 40.99 80.09 42.99C80.03 43.14 79.99 43.29 79.95 43.44C79.95 43.45 79.97 43.48 80 43.53C80.15 43.47 80.31 43.41 80.47 43.33C80.91 43.1 81.41 43.03 81.71 43.42C81.93 43.71 82.07 44.23 81.98 44.58C81.33 47.16 80.16 49.49 78.34 51.46C78.23 51.57 78.14 51.7 78.03 51.82C78.92 52.42 79.02 52.84 78.47 53.74C77.43 55.42 76 56.66 74.26 57.56C74.61 58.71 74.43 59.07 73.32 59.45C70.98 60.24 68.6 60.46 66.19 59.91C65.7 60.91 65.51 61.09 64.45 60.87C63.26 60.63 62.11 60.21 60.95 59.86C60.76 59.8 60.59 59.71 60.32 59.59C60.32 60.12 60.28 60.57 60.34 61.01C60.36 61.18 60.55 61.39 60.72 61.49C63.06 62.85 64.36 64.88 64.64 67.57C64.76 68.73 64.38 69.16 63.22 69.16C62.66 69.16 62.09 69.16 61.54 69.16C61.07 70.73 61.58 71.44 63.15 71.45C64.44 71.45 65.72 71.45 67.08 71.45C66.7 68.8 67.74 67.02 70.26 66.1C70.26 65.71 70.25 65.3 70.26 64.9C70.29 64.28 70.65 63.9 71.21 63.87C71.79 63.84 72.23 64.23 72.28 64.86C72.31 65.26 72.28 65.67 72.28 66.12C72.5 66.2 72.71 66.27 72.91 66.36C74.51 67.09 75.43 68.35 75.52 70.1C75.61 71.8 74.87 73.14 73.39 74C71.89 74.87 70.38 74.77 68.89 73.89C68.51 73.67 68.03 73.51 67.59 73.5C66.08 73.45 64.56 73.44 63.04 73.5C60.68 73.58 59.16 72 59.36 69.83C59.38 69.63 59.34 69.43 59.32 69.17C58.95 69.17 58.61 69.18 58.28 69.17C57.66 69.14 57.29 68.84 57.19 68.19C56.93 66.51 56.22 65.91 54.49 65.92C54.06 65.92 53.62 65.9 53.21 66C52.01 66.32 51.37 67.55 51.71 68.79C51.96 69.68 52.51 70.34 53.29 70.83C54.73 71.72 56.16 72.63 57.6 73.52C59.41 74.64 60.28 76.27 60.3 78.38C60.3 79.26 60.31 80.15 60.3 81.03C60.28 81.77 59.88 82.22 59.27 82.22C58.67 82.22 58.28 81.77 58.27 81.02C58.26 80.18 58.26 79.35 58.27 78.51C58.29 77.05 57.72 75.93 56.44 75.19C55.86 74.85 55.3 74.49 54.57 74.03C54.74 74.34 54.81 74.49 54.9 74.64C55.57 75.78 55.91 77.01 55.94 78.32C55.96 79.59 55.96 80.8501 55.94 82.12C55.94 82.86 55.52 83.31 54.92 83.31C54.32 83.31 53.93 82.86 53.92 82.11C53.91 80.96 53.92 79.8 53.92 78.65C53.92 76.77 53.19 75.25 51.6 73.95C51.6 74.32 51.6 74.55 51.6 74.79C51.6 77.84 51.59 80.9 51.6 83.95C51.6 84.57 51.5 85.1 50.98 85.49H50.17V85.5ZM50.54 65.33C52.2 64.01 52.56 63.89 54.69 63.88C54.98 63.88 55.28 63.88 55.57 63.88C57.41 63.88 58.28 63.01 58.28 61.19C58.28 56.85 58.28 52.5 58.28 48.16V47.47H42.9C42.9 52.28 42.87 57.03 42.92 61.78C42.93 63.01 43.89 63.82 45.16 63.88C45.7 63.91 46.25 63.91 46.79 63.88C48.25 63.8 49.51 64.21 50.54 65.33ZM36.54 46.58C36.95 46.14 36.75 45.86 36.47 45.54C33.06 41.64 29.66 37.74 26.26 33.83C25.59 33.06 24.91 32.29 24.11 31.38C24.04 33.81 24.44 35.96 25.39 37.99C25.57 38.38 25.88 38.75 26.22 39.01C28.08 40.41 29.97 41.78 31.84 43.16C31.97 43.25 32.1 43.34 32.22 43.45C32.68 43.86 32.76 44.38 32.44 44.84C32.11 45.3 31.54 45.4 31 45.06C30.81 44.94 30.63 44.8 30.45 44.66C27.9 42.79 25.35 40.91 22.8 39.04C22.63 38.92 22.46 38.8 22.2 38.62C22.43 40.98 23.05 43.06 24.34 44.9C24.58 45.23 24.92 45.53 25.28 45.72C30.23 48.3 35.19 50.85 40.15 53.4C40.34 53.5 40.55 53.58 40.8 53.7V50.7C39.98 50.6 39.09 50.72 38.47 50.37C37.12 49.61 35.88 48.64 34.64 47.7C34.22 47.38 34.2 46.86 34.53 46.41C34.87 45.95 35.34 45.85 35.85 46.12C36.08 46.25 36.3 46.41 36.54 46.57V46.58ZM78.97 38.62C78.66 38.84 78.48 38.96 78.3 39.09C77.3 39.83 76.3 40.57 75.29 41.3C74.68 41.74 74.1 41.7 73.73 41.22C73.35 40.73 73.49 40.12 74.11 39.65C74.18 39.59 74.25 39.53 74.33 39.49C75.37 38.96 75.89 38.03 76.22 36.97C76.35 36.56 76.49 36.15 76.59 35.74C76.93 34.37 77.15 32.98 77.03 31.5C76.91 31.59 76.85 31.63 76.81 31.67C72.74 36.34 68.67 41.01 64.59 45.68C64.28 46.04 64.36 46.29 64.66 46.59C65.56 45.93 66.43 45.29 67.31 44.65C68.31 43.91 69.29 43.14 70.33 42.47C70.63 42.28 71.16 42.26 71.5 42.39C71.74 42.49 72 42.99 71.96 43.26C71.9 43.61 71.61 43.99 71.31 44.21C69 45.95 66.64 47.63 64.33 49.38C63.14 50.28 61.95 51.02 60.37 50.5V53.72C60.54 53.64 60.64 53.6 60.73 53.55C65.85 50.91 70.97 48.27 76.09 45.62C76.27 45.53 76.45 45.41 76.57 45.26C78.03 43.33 78.74 41.13 78.97 38.61V38.62ZM49.51 45.37C49.8 41.87 48.99 38.8 46.6 36.25C45.74 35.33 44.82 34.45 43.92 33.56C43.81 33.45 43.68 33.28 43.56 33.28C42.43 33.26 41.3 33.27 39.96 33.27C41.17 34.48 42.23 35.52 43.28 36.57C44.61 37.89 45.55 39.46 45.89 41.3C46.1 42.44 46.06 43.63 46.17 44.8C46.19 45 46.39 45.34 46.53 45.35C47.52 45.4 48.51 45.38 49.52 45.38L49.51 45.37ZM51.65 45.37C52.3 45.37 52.93 45.37 53.55 45.37C55 45.37 55.03 45.37 55 43.92C54.93 40.87 56 38.32 58.21 36.23C59.06 35.42 59.88 34.57 60.7 33.74C60.82 33.62 60.91 33.48 61.09 33.25C59.89 33.25 58.81 33.24 57.73 33.26C57.58 33.26 57.4 33.39 57.28 33.51C56.32 34.46 55.33 35.39 54.42 36.4C52.12 38.92 51.36 41.94 51.65 45.37ZM22.08 46.38C22.64 47.98 23.5 49.34 24.68 50.49C25.67 51.44 26.73 52.16 28.23 51.92C28.82 51.82 29.45 51.9 30.06 51.9H32.47L32.5 51.75L22.08 46.38ZM79.06 46.38L68.65 51.75C70.58 51.89 72.47 51.9 74.35 51.88C74.52 51.88 74.69 51.78 74.85 51.69C76.91 50.46 78.2 48.6 79.06 46.38ZM71.23 68.1C69.98 68.11 69.01 69.1 69.03 70.36C69.04 71.6 70.06 72.6 71.29 72.58C72.51 72.56 73.53 71.52 73.51 70.3C73.49 69.06 72.48 68.09 71.23 68.1ZM30.23 58C32.26 58.35 34.04 58.26 35.75 57.53C35.97 57.44 36.23 57.31 36.33 57.12C36.79 56.25 37.2 55.35 37.62 54.48C37.07 53.91 36.58 53.92 35.98 54.35C34.96 55.06 33.89 55.69 32.83 56.35C32.02 56.86 31.2 57.38 30.23 58ZM63.55 54.48C63.96 55.34 64.36 56.18 64.76 57.01C64.83 57.15 64.92 57.31 65.05 57.37C66.88 58.23 68.78 58.4 70.88 58C70.62 57.82 70.49 57.71 70.34 57.62C68.62 56.53 66.88 55.48 65.19 54.35C64.57 53.94 64.1 53.94 63.55 54.49V54.48ZM38.65 67.14C39.72 67.14 40.69 67.15 41.66 67.13C41.82 67.13 42.06 67.01 42.13 66.88C42.42 66.38 42.65 65.84 42.87 65.39L41.13 63.49C39.83 64.33 38.99 65.5 38.65 67.15V67.14ZM60.04 63.49L58.3 65.39C58.52 65.84 58.76 66.37 59.03 66.88C59.09 66.99 59.25 67.13 59.37 67.13C60.4 67.15 61.43 67.14 62.52 67.14C62.18 65.5 61.34 64.32 60.04 63.49ZM25.4 53.99C26.47 55.08 27.6 55.78 28.91 56.2C29.02 56.24 29.19 56.23 29.29 56.17C30.39 55.49 31.49 54.79 32.58 54.1L32.53 53.99H25.4ZM68.64 53.99L68.6 54.1C69.7 54.79 70.79 55.48 71.9 56.17C71.98 56.22 72.12 56.24 72.21 56.21C73.53 55.79 74.69 55.09 75.74 53.99H68.64ZM43.01 29.5C43.01 28.57 42.24 27.82 41.32 27.82C40.41 27.82 39.63 28.6 39.62 29.51C39.62 30.46 40.4 31.22 41.36 31.21C42.3 31.19 43.02 30.45 43.01 29.5ZM59.82 31.21C60.75 31.21 61.51 30.48 61.54 29.56C61.56 28.63 60.75 27.81 59.82 27.83C58.9 27.84 58.16 28.6 58.16 29.53C58.16 30.47 58.89 31.21 59.83 31.21H59.82ZM39.47 55.35L37.92 58.59C39.03 58.29 39.91 57.88 40.65 57.2C41.05 56.83 40.92 56.12 40.44 55.86C40.14 55.7 39.84 55.55 39.47 55.36V55.35ZM63.24 58.57L61.71 55.38C61.58 55.44 61.5 55.47 61.42 55.5C61.18 55.62 60.94 55.74 60.7 55.87C60.26 56.11 60.13 56.82 60.5 57.17C61.25 57.87 62.13 58.31 63.24 58.57ZM22.34 59.49C22.35 58.84 21.86 58.33 21.2 58.32C20.55 58.32 20.03 58.83 20.04 59.47C20.04 60.07 20.55 60.59 21.15 60.62C21.78 60.65 22.33 60.13 22.34 59.49ZM36.37 35.68L39.33 35.52C38.66 34.86 38.22 34.02 37.16 34.43C36.58 34.65 36.35 35.08 36.38 35.67L36.37 35.68ZM61.83 35.53L64.75 35.68C64.77 35 64.55 34.64 64.01 34.44C62.94 34.03 62.5 34.87 61.84 35.53H61.83ZM49.54 21.59V19.2L49.38 19.32C49.09 18.94 48.73 18.6 48.53 18.18C48.44 18 48.64 17.45 48.79 17.42C49.65 17.23 49.63 15.92 50.65 16.01C50.88 16.03 51.15 16.15 51.3 16.32C51.79 16.87 52.38 17.41 52.63 18.06C52.87 18.68 52.23 19.02 51.64 19.18V21.55C51.84 21.53 52.01 21.53 52.18 21.5C53.51 21.26 54.81 21.83 55.5 22.97C56.18 24.1 56.07 25.54 55.28 26.6C55.07 26.88 54.93 27.27 54.9 27.62C54.82 28.58 54.53 28.9 53.55 28.9C51.58 28.9 49.61 28.9 47.64 28.9C46.64 28.9 46.36 28.59 46.29 27.55C46.27 27.26 46.16 26.93 45.99 26.71C45.11 25.59 44.98 24.15 45.69 22.97C46.39 21.81 47.68 21.26 49.07 21.52C49.2 21.54 49.33 21.56 49.55 21.59H49.54ZM52.65 26.83C53.01 26.28 53.31 25.82 53.63 25.37C53.96 24.92 54.02 24.45 53.72 23.99C53.43 23.55 52.99 23.36 52.49 23.51C52.23 23.59 51.99 23.8 51.77 23.99C50.97 24.7 50.21 24.71 49.42 24C49.32 23.91 49.23 23.8 49.12 23.72C48.62 23.34 48 23.38 47.58 23.8C47.17 24.21 47.15 24.85 47.51 25.35C47.84 25.81 48.15 26.3 48.5 26.83H52.64H52.65ZM45.24 57.05C45.16 58.2 45.19 59.36 45.22 60.51C45.24 61.26 45.85 61.7 46.51 61.5C47.05 61.34 47.24 60.94 47.24 60.41C47.24 59.39 47.22 58.37 47.25 57.36C47.28 56.54 47.66 56.19 48.47 56.22C48.47 56.46 48.47 56.7 48.47 56.95C48.47 58.13 48.46 59.3 48.48 60.48C48.49 61.13 48.91 61.54 49.47 61.55C50.03 61.55 50.44 61.15 50.49 60.51C50.51 60.33 50.49 60.15 50.49 59.97C50.49 58.91 50.48 57.84 50.49 56.78C50.49 56.56 50.62 56.35 50.68 56.14C50.84 56.32 51.05 56.48 51.17 56.69C51.32 56.94 51.39 57.23 51.5 57.5C51.95 58.63 52.39 59.77 52.87 60.89C53.11 61.46 53.61 61.67 54.14 61.49C54.69 61.3 54.94 60.78 54.76 60.17C54.67 59.87 54.53 59.58 54.42 59.29C54.02 58.27 53.61 57.25 53.2 56.21C53.8867 56.0767 54.3633 56.2767 54.63 56.81C54.8 57.15 54.95 57.51 55.17 57.83C55.48 58.28 55.94 58.4 56.42 58.18C56.88 57.97 57.16 57.53 56.96 57.07C56.56 56.14 56.16 55.18 55.55 54.4C55.28 54.06 54.47 54.14 53.91 54.04C53.89 54.04 53.87 54.02 53.85 54.01C53.55 52.61 53.85 51.99 54.92 51.77C55.63 51.62 55.98 51.22 55.91 50.63C55.84 50.02 55.37 49.7 54.61 49.76C53.12 49.88 51.9 51.07 51.76 52.56C51.71 53.05 51.71 53.54 51.69 54.04H50.49C50.49 53.73 50.49 53.47 50.49 53.2C50.49 52.36 50.49 51.53 50.47 50.69C50.45 50.18 50.16 49.85 49.65 49.76C49.17 49.68 48.84 49.88 48.56 50.28C48.39 50.53 48.16 50.77 47.91 50.92C47.25 51.32 47.16 52.37 47.86 52.64C48.64 52.94 48.46 53.44 48.41 54.01C46.35 54.42 45.34 55.35 45.23 57.04L45.24 57.05Z" fill="white"/>
</g>
<defs>
<clipPath id="clip0_74_381">
<rect width="100" height="100" fill="white"/>
</clipPath>
</defs>
</svg>
