<svg width="100" height="100" viewBox="0 0 100 100" fill="none" xmlns="http://www.w3.org/2000/svg">
<g clip-path="url(#clip0_74_420)">
<path d="M50 100C77.6142 100 100 77.6142 100 50C100 22.3858 77.6142 0 50 0C22.3858 0 0 22.3858 0 50C0 77.6142 22.3858 100 50 100Z" fill="#663399"/>
<path d="M72.38 20C72.88 20.36 73 20.86 73 21.47C72.99 40.49 72.99 59.52 72.99 78.54C72.99 79.74 72.72 80 71.5 80C57.16 80 42.83 80 28.49 80C27.27 80 27 79.74 27 78.54C27.01 59.51 27.01 40.49 27 21.47C27 20.86 27.11 20.36 27.62 20H72.38ZM29.06 22.02V77.96H70.95V22.02H29.06ZM55.99 70.75C55.99 69.42 55.99 68.09 55.99 66.77C55.99 66.42 55.91 66.17 55.63 65.91C53.13 63.64 52.32 60.11 53.56 57.02C54.81 53.92 57.81 51.94 61.18 52C64.36 52.06 67.25 54.07 68.43 57.06C69.62 60.07 68.9 63.49 66.53 65.73C66.12 66.12 65.97 66.5 65.98 67.04C66 69.58 66 72.12 65.98 74.65C65.98 75.01 65.86 75.43 65.64 75.71C65.32 76.13 64.8 76.09 64.28 75.71C63.31 74.99 62.33 74.27 61.38 73.53C61.1 73.31 60.91 73.3 60.62 73.53C59.68 74.26 58.72 74.96 57.77 75.68C57.41 75.95 57.04 76.13 56.58 75.91C56.11 75.68 55.98 75.28 55.98 74.8C55.98 73.45 55.98 72.11 55.98 70.76L55.99 70.75ZM55.01 60.02C55.02 63.34 57.72 66.02 61.02 65.99C64.34 65.97 67 63.28 66.99 59.97C66.99 56.67 64.27 53.98 60.97 53.99C57.66 54.01 54.99 56.7 55.01 60.02ZM63.96 67.42C61.93 68.19 59.99 68.15 58.04 67.44V72.96C58.85 72.35 59.58 71.81 60.31 71.25C60.76 70.91 61.2 70.9 61.66 71.23C61.9 71.4 62.13 71.58 62.36 71.76C62.87 72.14 63.37 72.51 63.96 72.95V67.42ZM33.05 35.04V36.97H65.97V35.04H33.05ZM65.97 39.03H33.04V40.97H65.97V39.03ZM65.97 44.95V43.03H33.03V44.95H65.97ZM33.04 47.04V48.95H65.98V47.04H33.04ZM49.95 52.97V51.04H33.04V52.97H49.95ZM43.04 26.03V27.94H56.99V26.03H43.04ZM46.05 31.95H53.96V30.03H46.05V31.95ZM39.97 64.97V63.04H34.03V64.97H39.97ZM39.97 67.03H34.04V68.97H39.97V67.03ZM39.95 72.95V71.02H34.04V72.95H39.96H39.95Z" fill="white"/>
</g>
<defs>
<clipPath id="clip0_74_420">
<rect width="100" height="100" fill="white"/>
</clipPath>
</defs>
</svg>
