<svg width="100" height="100" viewBox="0 0 100 100" fill="none" xmlns="http://www.w3.org/2000/svg">
<g clip-path="url(#clip0_74_384)">
<path d="M50 100C77.6142 100 100 77.6142 100 50C100 22.3858 77.6142 0 50 0C22.3858 0 0 22.3858 0 50C0 77.6142 22.3858 100 50 100Z" fill="#663399"/>
<path d="M23.4 55.3691C23.2377 55.3691 23.0754 55.3282 22.9232 55.2567L20.5696 54.0102L18.216 55.2567C17.8711 55.4406 17.4551 55.41 17.1508 55.1749C16.8363 54.9502 16.6841 54.5619 16.745 54.1736L17.1914 51.5375L15.2943 49.6677C15.0203 49.3919 14.9189 48.9934 15.0406 48.6153C15.1624 48.2475 15.4769 47.9716 15.8624 47.9205L18.4899 47.5323L19.6667 45.1312C20.0116 44.4364 21.1479 44.4364 21.4827 45.1312L22.6595 47.5323L25.287 47.9205C25.6725 47.9716 25.987 48.2475 26.1087 48.6153C26.2305 48.9832 26.129 49.3919 25.8551 49.6677L23.958 51.5375L24.4044 54.1736C24.4653 54.5619 24.3131 54.9399 23.9986 55.1749C23.8261 55.3078 23.6131 55.3691 23.4 55.3691ZM20.5798 51.8338C20.7421 51.8338 20.9044 51.8747 21.0566 51.9462L22.0609 52.4775L21.8682 51.3536C21.8073 51.0267 21.9189 50.6793 22.1624 50.4443L22.974 49.6473L21.858 49.4838C21.5232 49.4327 21.2392 49.2284 21.0972 48.9218L20.6 47.9001L20.1029 48.9218C19.9508 49.2284 19.6667 49.4327 19.3421 49.4838L18.2261 49.6473L19.0377 50.4443C19.2812 50.6793 19.3827 51.0164 19.3319 51.3536L19.1392 52.4775L20.1435 51.9462C20.2957 51.8645 20.458 51.8338 20.6203 51.8338H20.5798Z" fill="white"/>
<path d="M27.5493 40.0429C27.387 40.0429 27.2247 40.0021 27.0725 39.9306L24.7189 38.684L22.3653 39.9306C22.0203 40.1145 21.6145 40.0838 21.3 39.8488C20.9856 39.624 20.8334 39.2358 20.8943 38.8475L21.3406 36.2114L19.4435 34.3416C19.1696 34.0657 19.0682 33.6672 19.1899 33.2994C19.3116 32.9316 19.6261 32.6557 20.0116 32.6046L22.6392 32.2164L23.816 29.8152C24.1609 29.1205 25.2971 29.1205 25.6319 29.8152L26.8087 32.2164L29.4363 32.6046C29.8218 32.6557 30.1363 32.9316 30.258 33.2994C30.3798 33.6672 30.2783 34.0759 30.0044 34.3416L28.1073 36.2114L28.5537 38.8475C28.6145 39.2358 28.4624 39.6138 28.1479 39.8488C27.9754 39.9816 27.7624 40.0429 27.5493 40.0429ZM24.729 36.5077C24.8914 36.5077 25.0537 36.5486 25.2058 36.6201L26.2102 37.1514L26.0174 36.0275C25.9566 35.7005 26.0682 35.3531 26.3116 35.1181L27.1232 34.3212L26.0073 34.1577C25.6725 34.1066 25.3885 33.9022 25.2464 33.5957L24.7493 32.574L24.2522 33.5957C24.1 33.9022 23.816 34.1066 23.4914 34.1577L22.3754 34.3212L23.187 35.1181C23.4305 35.3531 23.5319 35.6903 23.4812 36.0275L23.2885 37.1514L24.2928 36.6201C24.445 36.5384 24.6073 36.5077 24.7696 36.5077H24.729Z" fill="white"/>
<path d="M78.2943 40.0429C78.1319 40.0429 77.9696 40.0021 77.8174 39.9306L75.4638 38.684L73.1102 39.9306C72.7653 40.1145 72.3595 40.0838 72.045 39.8488C71.7305 39.624 71.5783 39.2358 71.6392 38.8475L72.0856 36.2114L70.1885 34.3416C69.9145 34.0657 69.8131 33.6672 69.9348 33.2994C70.0566 32.9316 70.3711 32.6557 70.7566 32.6046L73.3841 32.2164L74.5609 29.8152C74.9058 29.1205 76.0421 29.1205 76.3769 29.8152L77.5537 32.2164L80.1812 32.6046C80.5667 32.6557 80.8812 32.9316 81.0029 33.2994C81.1247 33.6672 81.0232 34.0759 80.7493 34.3416L78.8522 36.2114L79.2986 38.8475C79.3595 39.2358 79.2073 39.6138 78.8928 39.8488C78.7203 39.9816 78.5073 40.0429 78.2943 40.0429ZM75.474 36.5077C75.6363 36.5077 75.7986 36.5486 75.9508 36.6201L76.9551 37.1514L76.7624 36.0275C76.7015 35.7005 76.8131 35.3531 77.0566 35.1181L77.8682 34.3212L76.7522 34.1577C76.4174 34.1066 76.1334 33.9022 75.9914 33.5957L75.4943 32.574L74.9972 33.5957C74.845 33.9022 74.5609 34.1066 74.2363 34.1577L73.1203 34.3212L73.9319 35.1181C74.1754 35.3531 74.2769 35.6903 74.2261 36.0275L74.0334 37.1514L75.0377 36.6201C75.1899 36.5384 75.3522 36.5077 75.5145 36.5077H75.474Z" fill="white"/>
<path d="M27.5493 70.0313C27.387 70.0313 27.2247 69.9904 27.0725 69.9189L24.7189 68.6723L22.3653 69.9189C22.0203 70.1028 21.6145 70.0721 21.3 69.8371C20.9856 69.6124 20.8334 69.2241 20.8943 68.8358L21.3406 66.1997L19.4435 64.3299C19.1696 64.054 19.0682 63.6556 19.1899 63.2877C19.3116 62.9199 19.6261 62.644 20.0116 62.5929L22.6392 62.2047L23.816 59.8036C24.1609 59.1088 25.2971 59.1088 25.6319 59.8036L26.8087 62.2047L29.4363 62.5929C29.8218 62.644 30.1363 62.9199 30.258 63.2877C30.3798 63.6556 30.2783 64.0643 30.0044 64.3299L28.1073 66.1997L28.5537 68.8358C28.6145 69.2241 28.4624 69.6021 28.1479 69.8371C27.9754 69.97 27.7624 70.0313 27.5493 70.0313ZM24.729 66.496C24.8914 66.496 25.0537 66.5369 25.2058 66.6084L26.2102 67.1397L26.0174 66.0158C25.9566 65.6888 26.0682 65.3414 26.3116 65.1064L27.1232 64.3095L26.0073 64.146C25.6725 64.0949 25.3885 63.8906 25.2464 63.584L24.7493 62.5623L24.2522 63.584C24.1 63.8906 23.816 64.0949 23.4914 64.146L22.3754 64.3095L23.187 65.1064C23.4305 65.3414 23.5319 65.6786 23.4812 66.0158L23.2885 67.1397L24.2928 66.6084C24.445 66.5267 24.6073 66.496 24.7696 66.496H24.729Z" fill="white"/>
<path d="M78.2942 70.0313C78.1319 70.0313 77.9696 69.9904 77.8276 69.9189L75.474 68.6723L73.1203 69.9189C72.7856 70.1028 72.3696 70.0721 72.0551 69.8371C71.7406 69.6124 71.5885 69.2241 71.6493 68.8358L72.0957 66.1997L70.1986 64.3299C69.9247 64.054 69.8232 63.6556 69.945 63.2877C70.0667 62.9199 70.3812 62.644 70.7667 62.5929L73.3942 62.2047L74.5711 59.8036C74.916 59.1088 76.0522 59.1088 76.387 59.8036L77.5638 62.2047L80.1914 62.5929C80.5769 62.644 80.8914 62.9199 81.0131 63.2877C81.1348 63.6556 81.0334 64.0643 80.7595 64.3299L78.8624 66.1997L79.3087 68.8358C79.3696 69.2241 79.2174 69.6021 78.9029 69.8371C78.7305 69.97 78.5174 70.0313 78.3044 70.0313H78.2942ZM75.474 66.496C75.6363 66.496 75.7986 66.5369 75.9406 66.6084L76.945 67.1397L76.7522 66.0158C76.6914 65.6888 76.8029 65.3414 77.0464 65.1064L77.858 64.3095L76.7421 64.146C76.4073 64.0949 76.1232 63.8906 75.9812 63.584L75.4841 62.5623L74.987 63.584C74.8348 63.8906 74.5508 64.0949 74.2261 64.146L73.1102 64.3095L73.9218 65.1064C74.1653 65.3414 74.2667 65.6786 74.216 66.0158L74.0232 67.1397L75.0276 66.6084C75.1798 66.5267 75.3319 66.496 75.4943 66.496H75.474Z" fill="white"/>
<path d="M82.2406 55.3691C82.0783 55.3691 81.916 55.3282 81.7638 55.2567L79.4102 54.0102L77.0566 55.2567C76.7116 55.4406 76.3058 55.41 75.9914 55.1749C75.6769 54.9502 75.5247 54.5619 75.5856 54.1736L76.0319 51.5375L74.1348 49.6677C73.8609 49.3919 73.7595 48.9934 73.8812 48.6153C74.0029 48.2475 74.3174 47.9716 74.7029 47.9205L77.3305 47.5323L78.5073 45.1312C78.8522 44.4364 79.9885 44.4364 80.3232 45.1312L81.5001 47.5323L84.1276 47.9205C84.5131 47.9716 84.8276 48.2475 84.9493 48.6153C85.0711 48.9832 84.9696 49.3919 84.6957 49.6677L82.7986 51.5375L83.245 54.1736C83.3058 54.5619 83.1537 54.9399 82.8392 55.1749C82.6667 55.3078 82.4537 55.3691 82.2406 55.3691ZM79.4203 51.8338C79.5827 51.8338 79.745 51.8747 79.8971 51.9462L80.9015 52.4775L80.7087 51.3536C80.6479 51.0267 80.7595 50.6793 81.0029 50.4443L81.8145 49.6473L80.6986 49.4838C80.3638 49.4327 80.0798 49.2284 79.9377 48.9218L79.4406 47.9001L78.9435 48.9218C78.7913 49.2284 78.5073 49.4327 78.1827 49.4838L77.0667 49.6473L77.8783 50.4443C78.1218 50.6793 78.2232 51.0164 78.1725 51.3536L77.9798 52.4775L78.9841 51.9462C79.1363 51.8645 79.2986 51.8338 79.4609 51.8338H79.4203Z" fill="white"/>
<path d="M52.8203 84.9999C52.658 84.9999 52.4957 84.959 52.3537 84.8773L50 83.6308L47.6464 84.8773C47.3116 85.0612 46.8856 85.0306 46.5812 84.7955C46.2667 84.5708 46.1145 84.1825 46.1754 83.7942L46.6218 81.1581L44.7247 79.2883C44.4508 79.0125 44.3493 78.614 44.4711 78.2359C44.5928 77.8681 44.9073 77.6024 45.2928 77.5411L47.9203 77.1529L49.0972 74.7518C49.4421 74.057 50.5783 74.057 50.9131 74.7518L52.0899 77.1529L54.7174 77.5411C55.1029 77.5922 55.4174 77.8681 55.5392 78.2359C55.6609 78.6037 55.5595 79.0125 55.2856 79.2883L53.3885 81.1581L53.8348 83.7942C53.8957 84.1825 53.7435 84.5605 53.429 84.7955C53.2566 84.9284 53.0435 84.9897 52.8305 84.9897L52.8203 84.9999ZM50 81.4647C50.1624 81.4647 50.3247 81.5055 50.4667 81.5873L51.4711 82.1186L51.2783 80.9946C51.2174 80.6677 51.329 80.3203 51.5725 80.0955L52.3841 79.2985L51.2682 79.1351C50.9334 79.084 50.6493 78.8796 50.5073 78.5731L50.0102 77.5513L49.5131 78.5731C49.3609 78.8796 49.0769 79.084 48.7522 79.1351L47.6363 79.2985L48.4479 80.0955C48.6914 80.3305 48.7928 80.6677 48.7421 80.9946L48.5493 82.1186L49.5537 81.5873C49.7058 81.5055 49.858 81.4647 50.0203 81.4647H50Z" fill="white"/>
<path d="M52.8203 25.7385C52.658 25.7385 52.4957 25.6977 52.3435 25.6261L49.9899 24.3796L47.6363 25.6261C47.2914 25.8101 46.8856 25.7794 46.5711 25.5444C46.2566 25.3196 46.1044 24.9314 46.1653 24.5431L46.6116 21.907L44.7145 20.0372C44.4406 19.7613 44.3392 19.3628 44.4609 18.995C44.5827 18.6272 44.8972 18.3513 45.2827 18.3002L47.9102 17.9119L49.087 15.5108C49.4319 14.816 50.5682 14.816 50.9029 15.5108L52.0798 17.9119L54.7073 18.3002C55.0928 18.3513 55.4073 18.6272 55.529 18.995C55.6508 19.3628 55.5493 19.7715 55.2754 20.0372L53.3783 21.907L53.8247 24.5431C53.8856 24.9314 53.7334 25.3094 53.4189 25.5444C53.2464 25.6772 53.0334 25.7385 52.8203 25.7385ZM50 22.2033C50.1624 22.2033 50.3247 22.2442 50.4769 22.3157L51.4812 22.847L51.2885 21.7231C51.2276 21.3961 51.3392 21.0487 51.5827 20.8137L52.3943 20.0167L51.2783 19.8533C50.9435 19.8022 50.6595 19.5978 50.5174 19.2913L50.0203 18.2696L49.5232 19.2913C49.3711 19.5978 49.087 19.8022 48.7624 19.8533L47.6464 20.0167L48.458 20.8137C48.7015 21.0487 48.8029 21.3859 48.7522 21.7231L48.5595 22.847L49.5638 22.3157C49.716 22.2339 49.8783 22.2033 50.0406 22.2033H50Z" fill="white"/>
<path d="M38.1 29.8255C37.9377 29.8255 37.7754 29.7846 37.6232 29.7131L35.2798 28.4665L32.9261 29.7131C32.5812 29.897 32.1754 29.8663 31.8609 29.6313C31.5464 29.4065 31.3943 29.0183 31.4551 28.63L31.9015 25.9939L30.0044 24.1241C29.7305 23.8482 29.629 23.4498 29.7508 23.0819C29.8725 22.7141 30.187 22.4382 30.5725 22.3871L33.2 21.9989L34.3769 19.5978C34.7218 18.903 35.858 18.903 36.1928 19.5978L37.3696 21.9989L39.9971 22.3871C40.3827 22.4382 40.6972 22.7141 40.8189 23.0819C40.9406 23.4498 40.8392 23.8585 40.5653 24.1241L38.6682 25.9939L39.1145 28.63C39.1754 29.0183 39.0232 29.3963 38.7087 29.6313C38.5363 29.7642 38.3232 29.8255 38.1102 29.8255H38.1ZM35.2798 26.2902C35.4421 26.2902 35.6044 26.3311 35.7566 26.4026L36.7609 26.9339L36.5682 25.81C36.5073 25.483 36.6189 25.1356 36.8624 24.9006L37.674 24.1037L36.558 23.9402C36.2232 23.8891 35.9392 23.6848 35.7971 23.3782L35.3 22.3565L34.8029 23.3782C34.6508 23.6848 34.3667 23.8891 34.0421 23.9402L32.9261 24.1037L33.7377 24.9006C33.9812 25.1356 34.0827 25.4728 34.0319 25.81L33.8392 26.9339L34.8435 26.4026C34.9957 26.3209 35.158 26.2902 35.3203 26.2902H35.2798Z" fill="white"/>
<path d="M67.8754 29.8255C67.7131 29.8255 67.5508 29.7846 67.3986 29.7131L65.045 28.4665L62.6914 29.7131C62.3464 29.897 61.9406 29.8663 61.6261 29.6313C61.3116 29.4065 61.1595 29.0183 61.2203 28.63L61.6667 25.9939L59.7696 24.1241C59.4957 23.8482 59.3943 23.4498 59.516 23.0819C59.6377 22.7141 59.9522 22.4382 60.3377 22.3871L62.9653 21.9989L64.1421 19.5978C64.487 18.903 65.6232 18.903 65.958 19.5978L67.1348 21.9989L69.7624 22.3871C70.1479 22.4382 70.4624 22.7141 70.5841 23.0819C70.7058 23.4498 70.6044 23.8585 70.3305 24.1241L68.4334 25.9939L68.8798 28.63C68.9406 29.0183 68.7885 29.3963 68.474 29.6313C68.3015 29.7642 68.0885 29.8255 67.8754 29.8255ZM65.0551 26.2902C65.2174 26.2902 65.3798 26.3311 65.5319 26.4026L66.5363 26.9339L66.3435 25.81C66.2827 25.483 66.3943 25.1356 66.6377 24.9006L67.4493 24.1037L66.3334 23.9402C65.9986 23.8891 65.7145 23.6848 65.5725 23.3782L65.0754 22.3565L64.5783 23.3782C64.4261 23.6848 64.1421 23.8891 63.8174 23.9402L62.7015 24.1037L63.5131 24.9006C63.7566 25.1356 63.858 25.4728 63.8073 25.81L63.6145 26.9339L64.6189 26.4026C64.7711 26.3209 64.9334 26.2902 65.0957 26.2902H65.0551Z" fill="white"/>
<path d="M38.1 80.913C37.9377 80.913 37.7754 80.8721 37.6232 80.7904L35.2798 79.5439L32.9261 80.7904C32.5812 80.9743 32.1754 80.9437 31.8609 80.7086C31.5464 80.4839 31.3943 80.0956 31.4551 79.7073L31.9015 77.0712L30.0044 75.2014C29.7305 74.9255 29.629 74.5271 29.7508 74.149C29.8725 73.7812 30.187 73.5155 30.5725 73.4542L33.2 73.066L34.3769 70.6649C34.7218 69.9701 35.858 69.9701 36.1928 70.6649L37.3696 73.066L39.9971 73.4542C40.3827 73.5053 40.6972 73.7812 40.8189 74.149C40.9406 74.5169 40.8392 74.9255 40.5653 75.2014L38.6682 77.0712L39.1145 79.7073C39.1754 80.0956 39.0232 80.4736 38.7087 80.7086C38.5363 80.8415 38.3232 80.9028 38.1102 80.9028L38.1 80.913ZM35.2798 77.3777C35.4421 77.3777 35.6044 77.4186 35.7566 77.5004L36.7609 78.0317L36.5682 76.9077C36.5073 76.5808 36.6189 76.2334 36.8624 76.0086L37.674 75.2116L36.558 75.0482C36.2232 74.9971 35.9392 74.7927 35.7971 74.4862L35.3 73.4645L34.8029 74.4862C34.6508 74.7825 34.3667 74.9971 34.0421 75.0482L32.9261 75.2116L33.7377 76.0086C33.9812 76.2436 34.0827 76.5808 34.0319 76.9077L33.8392 78.0317L34.8435 77.5004C34.9957 77.4186 35.158 77.3777 35.3203 77.3777H35.2798Z" fill="white"/>
<path d="M67.8754 80.913C67.7131 80.913 67.5508 80.8721 67.4087 80.7904L65.0551 79.5439L62.7015 80.7904C62.3667 80.9743 61.9406 80.9437 61.6363 80.7086C61.3218 80.4839 61.1696 80.0956 61.2305 79.7073L61.6769 77.0712L59.7798 75.2014C59.5058 74.9255 59.4044 74.5271 59.5261 74.149C59.6479 73.7812 59.9624 73.5155 60.3479 73.4542L62.9754 73.066L64.1522 70.6649C64.4972 69.9701 65.6334 69.9701 65.9682 70.6649L67.145 73.066L69.7725 73.4542C70.158 73.5053 70.4725 73.7812 70.5942 74.149C70.716 74.5169 70.6145 74.9255 70.3406 75.2014L68.4435 77.0712L68.8899 79.7073C68.9508 80.0956 68.7986 80.4736 68.4841 80.7086C68.3116 80.8415 68.0986 80.9028 67.8856 80.9028L67.8754 80.913ZM65.0551 77.3777C65.2174 77.3777 65.3798 77.4186 65.5218 77.5004L66.5261 78.0317L66.3334 76.9077C66.2725 76.5808 66.3841 76.2334 66.6276 76.0086L67.4392 75.2116L66.3232 75.0482C65.9885 74.9971 65.7044 74.7927 65.5624 74.4862L65.0653 73.4645L64.5682 74.4862C64.416 74.7825 64.1319 74.9971 63.8073 75.0482L62.6914 75.2116L63.5029 76.0086C63.7464 76.2436 63.8479 76.5808 63.7971 76.9077L63.6044 78.0317L64.6087 77.5004C64.7609 77.4186 64.9131 77.3777 65.0754 77.3777H65.0551Z" fill="white"/>
</g>
<defs>
<clipPath id="clip0_74_384">
<rect width="100" height="100" fill="white"/>
</clipPath>
</defs>
</svg>
