<svg width="100" height="100" viewBox="0 0 100 100" fill="none" xmlns="http://www.w3.org/2000/svg">
<g clip-path="url(#clip0_74_408)">
<path d="M50 100C77.6142 100 100 77.6142 100 50C100 22.3858 77.6142 0 50 0C22.3858 0 0 22.3858 0 50C0 77.6142 22.3858 100 50 100Z" fill="#663399"/>
<path d="M30.56 80.0001C29.41 79.5601 28.91 78.7201 29.02 77.4901C29.06 77.0401 29.02 76.5901 29.02 76.1401C29.03 74.8201 29.82 74.0301 31.13 74.0101C31.4 74.0101 31.67 74.0101 32 74.0101C32 73.7001 32 73.4501 32 73.2001C32.06 71.0901 31.97 68.9701 32.21 66.8901C32.58 63.6401 34.09 60.8801 36.48 58.6401C37.86 57.3401 39.3 56.1201 40.72 54.8601C43.81 52.1201 43.81 47.8701 40.72 45.1301C39.48 44.0301 38.23 42.9401 36.99 41.8301C33.66 38.8701 32.03 35.1501 32.01 30.7101C32.01 29.3601 32.01 28.0201 32.01 26.6701C32.01 26.4601 32.01 26.2501 32.01 25.9901C31.6 25.9901 31.28 26.0001 30.95 25.9901C29.88 25.9501 29.07 25.1501 29.04 24.0901C29.02 23.3701 29.02 22.6401 29.04 21.9201C29.07 20.8801 29.87 20.0801 30.9 20.0101C31.07 20.0001 31.25 20.0101 31.43 20.0101C43.82 20.0101 56.21 20.0101 68.61 20.0101C70.28 20.0101 71 20.7301 71 22.3901C71 22.9201 71 23.4401 71 23.9701C70.98 25.1701 70.17 25.9701 68.96 26.0001C68.67 26.0001 68.38 26.0001 68.02 26.0001C68.02 26.3101 68.02 26.5501 68.02 26.8001C67.96 28.9101 68.05 31.0301 67.81 33.1101C67.44 36.3801 65.91 39.1501 63.51 41.4001C62.16 42.6701 60.75 43.8701 59.35 45.1001C56.2 47.8701 56.19 52.1401 59.35 54.9001C60.61 56.0101 61.88 57.1101 63.12 58.2301C66.4 61.1801 68 64.8801 68.02 69.2701C68.02 70.6201 68.02 71.9601 68.02 73.3101C68.02 73.5201 68.02 73.7301 68.02 74.0001C68.38 74.0001 68.66 74.0001 68.95 74.0001C70.18 74.0201 70.98 74.8301 71 76.0701C71 76.5401 70.97 77.0101 71 77.4801C71.1 78.7101 70.61 79.5501 69.46 79.9901H30.56V80.0001ZM65.82 74.1101L65.99 73.9401C65.99 72.2201 66.02 70.5101 65.99 68.7901C65.9 65.1601 64.48 62.1401 61.78 59.7201C60.52 58.5901 59.24 57.4701 57.96 56.3501C53.98 52.8401 53.97 47.1801 57.94 43.6601C59.12 42.6101 60.3 41.5601 61.5 40.5301C63.52 38.7901 64.94 36.6601 65.6 34.0601C66.26 31.4401 65.95 28.7801 65.98 26.1301C65.98 26.1001 65.94 26.0601 65.92 26.0201H34.06C34.04 26.1601 34.01 26.2701 34.01 26.3901C34.01 28.0301 33.98 29.6701 34.03 31.3101C34.14 34.8701 35.55 37.8401 38.19 40.2301C39.45 41.3701 40.74 42.4801 42.01 43.6001C46.07 47.2101 46.06 52.7901 42 56.4101C40.63 57.6301 39.23 58.8201 37.89 60.0701C35.84 61.9901 34.5 64.3501 34.21 67.1401C33.98 69.3601 34.08 71.6201 34.04 73.8601C34.04 73.8901 34.08 73.9301 34.09 73.9601C34.54 74.1501 34.82 73.8701 35.12 73.6101C39.3 70.0601 43.48 66.5101 47.69 62.9901C48.17 62.5901 48.76 62.2601 49.36 62.0901C50.56 61.7601 51.54 62.2801 52.45 63.0601C56.6 66.5901 60.76 70.1101 64.92 73.6101C65.18 73.8301 65.52 73.9401 65.82 74.1101ZM62.22 73.9701C61.96 73.7401 61.81 73.6001 61.65 73.4601C58.16 70.5101 54.68 67.5601 51.19 64.6101C50.23 63.7901 49.81 63.7901 48.86 64.5901C45.33 67.5801 41.8 70.5701 38.27 73.5501C38.14 73.6601 38 73.7501 37.86 73.8401L37.95 73.9601H62.23L62.22 73.9701ZM31.05 23.9501H68.93V22.0301H31.05V23.9501ZM68.96 76.0501H31.07V77.9701H68.96V76.0501ZM50.06 27.9901C53.9 27.9901 57.75 27.9901 61.59 27.9901C63.24 27.9901 63.95 28.7301 63.99 30.3801C64.07 33.9301 62.73 36.7901 60.06 39.1301C57.73 41.1801 55.51 43.3401 53.26 45.4801C52.87 45.8501 52.56 46.3201 52.25 46.7601C51.4 47.9601 50.81 49.2301 50.98 50.7801C51.08 51.7601 51.01 52.7701 51 53.7601C51 54.5101 50.62 54.9601 50.02 54.9801C49.4 55.0001 49 54.5301 49 53.7501C49 52.4201 49.02 51.0901 48.98 49.7701C48.97 49.3401 48.87 48.8801 48.7 48.4801C47.89 46.5901 46.54 45.1001 45.06 43.7301C43.41 42.1901 41.73 40.6601 40.01 39.2001C37.21 36.8301 35.87 33.8501 36 30.2001C36.05 28.7801 36.81 27.9901 38.23 27.9901C42.17 27.9901 46.11 27.9901 50.05 27.9901H50.06ZM61.96 30.0301H38.05C37.88 32.2501 38.33 34.2801 39.72 35.9901C40.44 36.8801 41.33 37.6301 42.17 38.4101C44.2 40.2901 46.44 41.9501 48.19 44.1301C48.81 44.9001 49.39 45.7001 50.02 46.5201C50.11 46.4101 50.18 46.3301 50.24 46.2401C51.58 44.2301 53.2 42.4701 55.03 40.8901C56.47 39.6601 57.89 38.4101 59.28 37.1201C61.34 35.2201 62.16 32.8301 61.96 30.0201V30.0301ZM49.02 59.0701C49.09 59.6301 49.45 59.9701 49.98 59.9801C50.53 59.9901 50.92 59.6401 50.99 59.0601C51.01 58.8701 51.01 58.6701 51.01 58.4801C51.01 57.4701 50.7 57.0101 50 57.0201C49.31 57.0201 49 57.4801 49.02 58.4901C49.02 58.6801 49 58.8801 49.02 59.0701ZM26 64.0001H22C21.45 64.0001 21 63.5501 21 63.0001V52.0001H17C16.61 52.0001 16.25 51.7701 16.09 51.4101C15.93 51.0501 15.99 50.6301 16.25 50.3401L23.25 42.3401C23.63 41.9101 24.37 41.9101 24.76 42.3401L31.76 50.3401C32.02 50.6401 32.08 51.0501 31.92 51.4101C31.76 51.7701 31.4 52.0001 31.01 52.0001H27.01V63.0001C27.01 63.5501 26.56 64.0001 26.01 64.0001H26ZM23 62.0001H25V51.0001C25 50.4501 25.45 50.0001 26 50.0001H28.8L24 44.5201L19.2 50.0001H22C22.55 50.0001 23 50.4501 23 51.0001V62.0001ZM78 64.0001H74C73.45 64.0001 73 63.5501 73 63.0001V52.0001H69C68.61 52.0001 68.25 51.7701 68.09 51.4101C67.93 51.0501 67.99 50.6301 68.25 50.3401L75.25 42.3401C75.63 41.9101 76.37 41.9101 76.76 42.3401L83.76 50.3401C84.02 50.6401 84.08 51.0501 83.92 51.4101C83.76 51.7701 83.4 52.0001 83.01 52.0001H79.01V63.0001C79.01 63.5501 78.56 64.0001 78.01 64.0001H78ZM75 62.0001H77V51.0001C77 50.4501 77.45 50.0001 78 50.0001H80.8L76 44.5201L71.2 50.0001H74C74.55 50.0001 75 50.4501 75 51.0001V62.0001Z" fill="white"/>
</g>
<defs>
<clipPath id="clip0_74_408">
<rect width="100" height="100" fill="white"/>
</clipPath>
</defs>
</svg>
