<svg width="170" height="56" viewBox="0 0 170 56" fill="none" xmlns="http://www.w3.org/2000/svg">
<path d="M26.4596 56L42.5658 18.2981L54.0829 8.07834L41.8586 48.1483L26.4596 56Z" fill="white"/>
<path d="M0 18.5383L8.6406 9.49007L59.055 0L41.0169 16.1487L0 18.5383Z" fill="white"/>
<path d="M27.1646 47.7041L32.8813 34.2757L17.7648 19.5784L7.49048 20.1596L27.1646 47.7041Z" fill="white"/>
<path d="M75.7092 33.2072H71.7482L70.6003 30.2999H64.887L63.8024 33.2072H59.9238L66.1173 18.4011H69.579L75.7092 33.2072ZM69.6083 27.4243L67.7804 22.3541L65.9083 27.4243H69.6083Z" fill="white"/>
<path d="M86.6557 21.4545H80.4633V24.5068H86.1778V27.4561H80.4633V33.2072H76.9384V18.4011H86.6557V21.4545Z" fill="white"/>
<path d="M102.731 25.7633C102.731 27.0176 102.495 28.1325 102.023 29.108C101.551 30.0846 100.914 30.8641 100.115 31.451C99.3159 32.0364 98.424 32.4819 97.4768 32.7687C96.4963 33.0645 95.4773 33.2122 94.4535 33.2072H88.948V18.4011H94.2863C95.1618 18.4011 95.9922 18.4747 96.7786 18.6209C97.5638 18.7682 98.3252 19.022 99.0619 19.3845C99.7985 19.7471 100.435 20.2003 100.97 20.7441C101.504 21.288 101.933 21.9882 102.252 22.8459C102.572 23.7024 102.733 24.6757 102.733 25.7633H102.731ZM99.0314 25.7633C99.0314 24.968 98.8992 24.2814 98.6348 23.7024C98.3693 23.1246 98.0044 22.6748 97.5378 22.3541C97.0743 22.0347 96.5579 21.8007 96.0126 21.663C95.4213 21.519 94.8145 21.449 94.206 21.4545H92.4312V30.1118H94.1224C95.5573 30.1118 96.7334 29.7719 97.653 29.0876C98.5715 28.4044 99.0314 27.2974 99.0314 25.7633Z" fill="white"/>
<path d="M123.895 33.2072H119.934L118.786 30.2999H113.072L111.988 33.2072H108.109L114.303 18.4011H117.764L123.895 33.2072ZM117.794 27.4243L115.966 22.3541L114.094 27.4243H117.794Z" fill="white"/>
<path d="M137.865 32.3087C136.239 33.1585 134.342 33.5845 132.174 33.5845C129.795 33.5845 127.849 32.8628 126.334 31.4204C124.819 29.977 124.062 28.0985 124.062 25.7837C124.062 23.4565 124.822 21.578 126.344 20.1482C127.867 18.7194 129.775 18.0045 132.069 18.0045C133.209 18.0045 134.286 18.1824 135.301 18.537C136.315 18.8928 137.137 19.372 137.762 19.9703L135.51 22.5422C134.717 21.6222 133.612 21.1622 132.194 21.1622C130.943 21.1622 129.907 21.6018 129.087 22.4799C128.267 23.358 127.857 24.4604 127.857 25.7837C127.857 27.1785 128.252 28.3047 129.045 29.1624C129.837 30.0189 130.943 30.4472 132.36 30.4472C133.237 30.4472 133.98 30.3158 134.591 30.0506V27.3518H131.778V24.466H137.865V32.3087Z" fill="white"/>
<path d="M152.856 33.2072H148.687L145.495 27.3303H144.286V33.2072H140.783V18.4011H146.412C147.164 18.4011 147.858 18.4781 148.498 18.6311C149.129 18.7814 149.734 19.0282 150.291 19.363C150.847 19.6984 151.282 20.1652 151.595 20.7645C151.908 21.3639 152.064 22.0675 152.064 22.8764C152.064 23.852 151.792 24.6893 151.25 25.3861C150.709 26.0829 149.958 26.578 148.998 26.8703L152.856 33.2072ZM146.167 21.2868H144.266V24.7266H145.958C147.687 24.7266 148.551 24.1284 148.551 22.9342C148.551 21.8352 147.757 21.2868 146.167 21.2868Z" fill="white"/>
<path d="M169.999 25.7429C169.999 28.0701 169.242 29.9634 167.726 31.4193C166.212 32.8764 164.286 33.606 161.95 33.606C159.629 33.606 157.709 32.8764 156.195 31.4193C154.679 29.9634 153.922 28.0701 153.922 25.7429C153.922 23.3999 154.676 21.5248 156.184 20.1164C157.693 18.7092 159.615 18.0045 161.95 18.0045C164.3 18.0045 166.229 18.7092 167.737 20.1164C169.245 21.5248 170 23.3999 170 25.7429H169.999ZM166.172 25.7429C166.172 24.4321 165.777 23.3523 164.986 22.5003C164.194 21.6505 163.181 21.2245 161.945 21.2245C160.71 21.2245 159.699 21.6505 158.915 22.5003C158.13 23.3512 157.737 24.4321 157.737 25.7429C157.737 27.0799 158.13 28.1823 158.915 29.0457C159.699 29.9113 160.71 30.343 161.945 30.343C163.181 30.343 164.193 29.9113 164.985 29.0457C165.776 28.1823 166.171 27.081 166.171 25.7429" fill="white"/>
<path d="M59.7882 41.375V38.274H61.5439V38.555H60.1023V41.375H59.7882Z" fill="white"/>
<path d="M62.0026 41.375V38.274H62.8759C63.1991 38.274 63.4544 38.3443 63.6408 38.4847C63.8272 38.6241 63.9199 38.8303 63.9199 39.1022C63.9199 39.3742 63.825 39.5792 63.6363 39.7209C63.4465 39.8625 63.1912 39.9339 62.868 39.9339H62.3167V41.375H62.0026ZM62.3167 39.6665H62.85C63.0951 39.6665 63.2815 39.6178 63.4115 39.5226C63.4757 39.4739 63.5269 39.41 63.5606 39.3367C63.5943 39.2634 63.6094 39.1828 63.6047 39.1022C63.6047 38.7306 63.3538 38.5459 62.85 38.5459H62.3167V39.6665Z" fill="white"/>
<path d="M64.6836 41.4102C64.5842 41.4102 64.4927 41.4011 64.4091 41.383L64.4565 41.0861C64.5209 41.1088 64.5955 41.1201 64.6802 41.1201C64.7709 41.1231 64.8598 41.0938 64.931 41.0374C65.0145 40.9632 65.0835 40.8741 65.1344 40.7746L65.3389 40.3939L64.1379 38.274H64.5051L65.514 40.0744L66.4969 38.274H66.8415L65.4044 40.8799C65.3061 41.0555 65.201 41.187 65.0948 41.2765C64.9779 41.3685 64.8322 41.4159 64.6836 41.4102Z" fill="white"/>
<path d="M67.2674 41.375V38.274H69.5824V41.375H69.2671V38.5539H67.5815V41.375H67.2674Z" fill="white"/>
<path d="M70.3969 41.375V38.274H72.7107V41.375H72.3967V38.5539H70.711V41.375H70.3969Z" fill="white"/>
<path d="M73.1649 41.375L74.5014 38.274H74.8065L76.134 41.375H75.786L75.4448 40.5593H73.8462L73.5106 41.375H73.1649ZM73.9637 40.2715H75.316L74.6404 38.6241L73.9637 40.2715Z" fill="white"/>
<path d="M77.6841 41.375V38.274H77.9993V39.6676H78.0027L79.4748 38.274H79.9244L78.3653 39.6801L80.0114 41.375H79.5482L78.0027 39.7243H77.9993V41.375H77.6841Z" fill="white"/>
<path d="M82.9229 40.991C82.7726 41.143 82.5928 41.2625 82.3945 41.342C82.1963 41.4216 81.9839 41.4594 81.7705 41.4532C81.3073 41.4532 80.9232 41.2991 80.6181 40.991C80.3108 40.6828 80.1583 40.2942 80.1583 39.824C80.1583 39.3538 80.3108 38.9651 80.617 38.657C80.7673 38.5049 80.9471 38.3854 81.1453 38.3059C81.3436 38.2264 81.556 38.1885 81.7694 38.1947C82.2326 38.1947 82.6167 38.3488 82.9217 38.657C83.2279 38.9651 83.3816 39.3538 83.3816 39.824C83.3816 40.2942 83.2279 40.6828 82.9229 40.991ZM80.8418 40.7802C81.0768 41.0408 81.3852 41.1734 81.7705 41.1734C82.1546 41.1734 82.4642 41.0419 82.6969 40.7802C82.9319 40.5196 83.0494 40.2001 83.0494 39.824C83.0494 39.4467 82.9319 39.1272 82.698 38.8643C82.4642 38.6026 82.1546 38.47 81.7705 38.47C81.3864 38.47 81.0768 38.6026 80.8418 38.8643C80.6071 39.1276 80.4814 39.4709 80.4904 39.824C80.4904 40.2001 80.6079 40.5196 80.8407 40.7802" fill="white"/>
<path d="M84.0334 41.375V38.274H84.5136L85.5621 40.8414H85.5666L86.6015 38.274H87.0816V41.375H86.7675V38.6808H86.7585L85.64 41.375H85.4739L84.3554 38.6808H84.3475V41.375H84.0334Z" fill="white"/>
<path d="M87.9086 41.375V38.274H90.2224V41.375H89.9083V38.5539H88.2227V41.375H87.9086Z" fill="white"/>
<path d="M90.6766 41.375L92.0131 38.274H92.3182L93.6457 41.375H93.2966L92.9565 40.5593H91.3579L91.0223 41.375H90.6766ZM91.4731 40.2715H92.83L92.1521 38.6241L91.4731 40.2715Z" fill="white"/>
<path d="M94.0998 41.375V38.274H94.4139V39.6189H96.0996V38.274H96.4136V41.375H96.0996V39.9078H94.4139V41.375H94.0998Z" fill="white"/>
<path d="M97.2294 41.375V38.274H97.5446V40.8845H97.5525L99.2562 38.274H99.6098V41.375H99.2957V38.7385H99.2856L97.5841 41.375H97.2294Z" fill="white"/>
<path d="M100.438 41.3784V38.2774H100.752V40.8867H100.761L102.464 38.2774H102.818V41.3784H102.503V38.7408H102.495L100.792 41.3784H100.438ZM101.625 37.9794C101.465 37.9855 101.308 37.9314 101.185 37.8276C101.068 37.7226 100.996 37.5757 100.986 37.4186L101.187 37.3789C101.203 37.4826 101.257 37.5766 101.338 37.6433C101.419 37.7101 101.521 37.745 101.625 37.7415C101.73 37.745 101.832 37.7101 101.913 37.6433C101.994 37.5766 102.047 37.4826 102.064 37.3789L102.267 37.4186C102.256 37.5759 102.184 37.7227 102.067 37.8276C101.944 37.9313 101.787 37.9854 101.626 37.9794H101.625Z" fill="white"/>
</svg>
