<svg width="91" height="44" viewBox="0 0 91 44" fill="none" xmlns="http://www.w3.org/2000/svg">
<g clip-path="url(#clip0_317_4)">
<path d="M0 19.7288C0.347083 18.7134 0.690625 17.6963 1.03948 16.6808C2.04531 13.7526 3.05115 10.8226 4.06406 7.89611C4.12604 7.71732 6.3325 4.91406 6.92396 4.54781C8.07854 3.83267 9.30219 3.21127 10.5435 2.64888C12.3073 1.85042 14.1543 1.78099 16.0579 2.16807C21.7441 3.32583 27.5117 3.55495 33.2952 3.45775C35.9497 3.41262 38.6024 3.14704 41.2533 3.16787C43.2331 3.18349 45.2094 3.55495 47.1909 3.65736C49.176 3.75977 51.1682 3.73894 53.1586 3.73547C53.3304 3.73547 53.5925 3.49073 53.658 3.30847C54.1432 1.94763 54.9915 0.885337 56.3975 0.00183105C56.7375 1.08495 57.0563 2.09864 57.4051 3.20606C58.1737 2.94049 59.0254 2.60375 59.9038 2.359C60.5058 2.19064 61.161 2.01879 61.7596 2.09343C62.2483 2.15592 62.6893 2.58292 63.2506 2.90577C64.6283 2.07607 66.2504 1.74975 67.9947 2.19064V3.49073C67.2899 4.39853 66.5798 5.29593 65.5102 5.84443C65.3809 5.91039 65.3101 6.16207 65.2871 6.33565C65.2481 6.6342 65.2605 6.9397 65.2658 7.24172C65.2942 9.25521 65.6838 11.1489 67.1217 12.7077C67.4298 13.0409 67.7043 13.4054 67.9947 13.7543V15.4432C67.6512 15.7939 67.366 16.3319 66.9534 16.4534C66.1282 16.693 65.218 16.8544 64.3733 16.7694C63.472 16.6774 62.583 16.3146 61.7259 15.9796C59.863 15.254 58.8005 15.5804 57.6123 17.1582C55.7246 19.6664 53.8493 22.1884 51.8252 24.589C50.5219 26.1321 49.0397 27.5849 46.7411 27.7481C46.5818 28.9006 46.4047 30.0324 46.2719 31.171C45.9744 33.7573 45.7318 36.354 46.3569 38.9212C46.5818 39.8499 47.0015 40.7316 47.3344 41.6377C45.6964 42.3147 44.6852 41.8738 44.0583 40.2022C43.6174 39.0271 43.0861 37.8798 42.7107 36.6856C42.369 35.6007 42.1795 34.469 41.9263 33.3581C41.9032 33.2574 41.8926 33.1533 41.8767 33.0491C40.3626 36.6092 40.1023 40.0495 42.8223 43.1982C40.7327 44.257 38.7954 43.3822 37.508 40.8358C37.2867 40.8618 37.06 40.8896 36.759 40.9278C36.8404 40.5945 36.9024 40.3272 36.9732 40.0616C37.4567 38.2703 37.6798 36.453 37.5806 34.5992C37.4761 32.6551 37.439 30.7058 37.2778 28.767C37.1857 27.6544 36.9059 26.5556 36.7076 25.4517C36.6031 24.8719 36.3003 24.655 35.6841 24.8476C35.2236 24.9917 34.7367 25.0681 34.255 25.1236C32.7409 25.2955 31.2286 25.5263 29.7075 25.5853C26.7909 25.6964 24.2746 24.6827 22.0451 22.8463C21.0393 22.0183 19.9449 21.2494 18.7797 20.6627C17.2196 19.8746 15.6506 20.161 14.3314 21.2754C13.6018 21.8916 12.9342 22.612 12.3817 23.3844C10.0477 26.6389 8.63635 30.2841 7.85896 34.1652C7.65177 35.2015 7.54906 36.2655 7.48354 37.3209C7.32771 39.7804 7.82531 42.0161 9.9999 43.6738C9.12688 43.8317 8.28042 43.9515 7.43219 43.9758C6.75927 43.9949 6.34667 43.6009 6.13771 42.9656C5.99781 42.5386 5.88802 42.0161 5.57458 41.7453C4.95833 41.2107 4.85917 40.6292 5.02563 39.9158C5.05927 39.7718 5.03625 39.6138 5.04156 39.4628C5.16906 36.0277 4.74938 32.6343 4.17385 29.2565C3.98615 28.1543 4.11542 27.151 4.81844 26.2432C5.99427 24.7226 6.45115 22.9556 6.63531 21.1001C6.91333 18.2916 6.53969 15.5265 6.02615 12.7736C5.86323 11.8971 5.66135 11.0274 5.47719 10.1543C4.45365 11.9057 3.74531 13.7127 3.29729 15.6151C2.86344 17.4532 2.62969 19.2758 3.4549 21.0897C3.58594 21.3761 3.56115 21.7805 3.47792 22.0982C3.08302 23.6152 1.40958 24.0283 0 22.9765V19.7288ZM27.903 29.6557C28.096 29.9473 28.4538 30.2563 28.7778 30.3066C29.07 30.35 29.4791 30.1174 29.7234 29.89C30.0298 29.6071 29.7907 28.0015 29.4596 27.7516C29.3675 27.6821 29.2134 27.6769 29.0877 27.6717C25.8489 27.5329 23.0509 26.3682 20.6054 24.2939C19.8457 23.6482 18.9709 23.1171 18.0926 22.6276C17.2639 22.1659 16.4227 22.3151 15.6878 22.9157C14.5651 23.8305 13.8001 25.0056 13.051 26.3282C13.8798 26.8958 14.6041 27.611 15.4806 27.9425C17.0035 28.5205 17.5153 29.4613 17.2851 30.987C17.1771 31.6987 17.6641 32.1708 18.2768 32.1899C18.9019 32.209 19.341 31.7265 19.3623 30.9766C19.3747 30.5531 19.3641 30.1278 19.3641 29.6974C20.3392 29.7934 20.8274 30.2858 20.8285 31.1745C20.8285 31.3689 20.8215 31.5651 20.8392 31.7577C20.8923 32.3114 21.2305 32.643 21.7724 32.6864C22.3196 32.7297 22.695 32.4208 22.8491 31.907C22.911 31.7039 22.904 31.48 22.9057 31.2648C22.9164 30.398 23.3614 29.9016 24.2409 29.7755C24.2764 29.7703 24.3171 29.8085 24.3844 29.8397C24.4464 30.1591 24.4534 30.5236 24.5951 30.8256C24.7315 31.1155 24.9617 31.4696 25.2344 31.5633C25.5336 31.6675 25.9888 31.6015 26.2703 31.4383C26.7095 31.1814 26.7414 30.7111 26.6245 30.2233C26.35 29.0725 26.3624 29.0707 27.4692 28.5899C27.4886 28.5813 27.5134 28.5847 27.6055 28.5761C27.7011 28.9597 27.7065 29.3658 27.8995 29.654L27.903 29.6557ZM12.6685 29.1905C13.2033 32.2802 13.2565 35.3889 12.9802 38.5012C12.8279 40.2179 13.3078 41.761 14.1543 43.2051C14.3668 43.5662 14.8785 43.948 15.2788 43.9775C16.2686 44.0522 17.2745 43.9272 18.4432 43.8751C18.2325 43.6356 18.1829 43.5662 18.1209 43.5123C16.7751 42.3563 15.957 40.8844 15.918 39.1608C15.8773 37.4233 16.1217 35.6788 16.2261 33.9361C16.2385 33.7434 16.2368 33.4744 16.1199 33.3616C15.277 32.5596 15.0078 31.5789 15.045 30.468C15.0503 30.2962 14.9299 30.0497 14.7882 29.9577C14.1277 29.5307 13.4389 29.1471 12.6668 28.6924C12.6668 28.9024 12.6455 29.0499 12.6703 29.1923L12.6685 29.1905Z" fill="white"/>
</g>
<g clip-path="url(#clip1_317_4)">
<path d="M90.9999 26.0075C90.8191 26.2301 90.6527 26.4664 90.4542 26.6725C89.5962 27.5649 88.7334 28.4524 87.8644 29.3345C86.64 30.5768 85.1205 31.1939 83.4127 31.3582C81.9686 31.4972 80.5758 31.2808 79.3042 30.5419C78.8919 30.3022 78.5242 29.9858 78.1305 29.7002C78.5324 28.9688 79.0316 28.3915 79.6691 27.9586C81.9131 26.4376 84.3132 26.1335 86.8612 27.0937C87.0598 27.1683 87.2762 27.3286 87.4528 27.293C87.6247 27.2587 87.7569 27.0245 87.9048 26.8766C88.4074 26.3746 88.9093 25.8719 89.412 25.3699C90.0371 24.7447 90.5555 24.8104 90.9999 25.5692V26.0068V26.0075ZM80.9914 15.9998C80.7689 16.1813 80.5312 16.347 80.3258 16.5463C79.5082 17.3387 78.6906 18.1324 77.8929 18.9454C77.4998 19.346 77.0841 19.7487 76.7918 20.2205C75.4873 22.3217 75.2524 24.5611 76.0741 26.8964C76.3371 27.6436 76.7685 28.2942 77.3909 28.8846C77.797 28.5435 78.2435 28.2456 78.5947 27.8614C80.5408 25.7363 81.0085 22.3771 79.7397 19.7987C79.6575 19.6323 79.6698 19.535 79.8061 19.4022C80.4655 18.7598 81.1167 18.1092 81.7611 17.4517C82.224 16.9792 82.1055 16.3491 81.5132 16.0567C81.4831 16.0416 81.4564 16.0183 81.4283 15.9991H80.9907L80.9914 15.9998ZM70.3605 41.0385C72.2367 41.6426 74.0801 41.5111 75.8728 40.7194C76.952 40.2428 77.8483 39.5312 78.4941 38.5238C78.5988 38.3601 78.5934 38.2683 78.4475 38.1368C77.8922 37.6369 77.2725 37.2486 76.5678 37.0007C74.6471 36.3241 72.7516 36.4398 70.9014 37.2459C69.7407 37.752 68.7855 38.521 68.1404 39.6634C68.7697 40.3249 69.5161 40.7667 70.3598 41.0385H70.3605ZM86.7297 18.1044C85.0356 18.6475 83.7017 19.6754 82.7129 21.1396C81.898 22.3463 81.4468 23.6701 81.5824 25.1549C81.5988 25.3316 81.6426 25.3994 81.8316 25.4179C82.7109 25.5048 83.5593 25.3761 84.3748 25.0556C86.3908 24.2632 87.8212 22.8524 88.6765 20.8712C89.0792 19.9384 89.2401 18.957 89.0778 17.9249C88.3191 17.8023 87.4309 17.8791 86.729 18.1037L86.7297 18.1044ZM68.6143 37.8335C70.2379 35.9577 70.7193 33.7682 70.2625 31.3589C70.0619 30.3022 69.6052 29.3592 68.8677 28.562C68.7602 28.4456 68.6807 28.3675 68.5068 28.4812C67.9056 28.8757 67.3701 29.3413 66.9688 29.9365C65.4993 32.115 65.2001 34.4558 66.0704 36.9329C66.3292 37.6698 66.7613 38.3108 67.3824 38.9005C67.7987 38.545 68.2637 38.2382 68.6143 37.8328V37.8335ZM81.6495 32.0212C79.9992 31.411 78.3325 31.4144 76.6692 31.9492C75.2709 32.3992 74.0965 33.1724 73.2782 34.4284C73.1714 34.5921 73.1591 34.6914 73.3179 34.8366C73.9055 35.3735 74.5724 35.7734 75.3264 36.0166C77.471 36.7083 79.5329 36.4768 81.4947 35.3975C82.3863 34.9071 83.1087 34.2188 83.6188 33.3039C83.0457 32.7183 82.3931 32.2965 81.6495 32.0218V32.0212ZM71.5588 25.574C70.7583 27.0533 70.4543 28.6271 70.6645 30.2933C70.8254 31.5692 71.2787 32.7218 72.1669 33.6785C72.2627 33.7819 72.3435 33.8935 72.5017 33.7634C72.8653 33.4621 73.2837 33.2107 73.5919 32.8615C75.2134 31.022 75.7023 28.8572 75.2955 26.4766C75.0935 25.2946 74.5848 24.2475 73.6994 23.3839C72.8585 23.8324 72.0409 24.6844 71.5588 25.574ZM65.5267 40.0229C64.8015 40.7523 64.0688 41.4748 63.3464 42.2076C62.8835 42.6774 62.8869 43.3246 63.3396 43.7314C63.7696 44.1183 64.3544 44.0861 64.8063 43.6375C65.7109 42.7397 66.61 41.8357 67.5105 40.9345C67.5399 40.905 67.5639 40.8694 67.6063 40.816C66.9476 40.5187 66.4799 40.0565 66.1642 39.3477C65.9252 39.6011 65.7301 39.8168 65.526 40.0222L65.5267 40.0229Z" fill="white"/>
</g>
<defs>
<clipPath id="clip0_317_4">
<rect width="68" height="44" fill="white"/>
</clipPath>
<clipPath id="clip1_317_4">
<rect width="28" height="28" fill="white" transform="translate(63 16)"/>
</clipPath>
</defs>
</svg>
